<?xml version="1.0"?>
<!-- Generated by SVGo -->
<svg width="157.717mm" height="127.697mm"
     viewBox="0.000 0.000 157.717 127.697"
     xmlns="http://www.w3.org/2000/svg" 
     xmlns:xlink="http://www.w3.org/1999/xlink">
<polygon points="150.717,5.000 150.874,5.006 151.030,5.024 151.184,5.055 151.335,5.097 151.482,5.152 151.625,5.217 151.762,5.294 151.892,5.381 152.016,5.479 152.131,5.585 152.238,5.701 152.335,5.824 152.422,5.955 152.499,6.092 152.565,6.234 152.619,6.381 152.662,6.533 152.692,6.687 152.711,6.843 152.717,7.000 152.717,120.696 152.711,120.853 152.692,121.009 152.662,121.163 152.619,121.314 152.565,121.462 152.499,121.604 152.422,121.741 152.335,121.872 152.238,121.995 152.131,122.110 152.016,122.217 151.892,122.314 151.762,122.402 151.625,122.478 151.482,122.544 151.335,122.598 151.184,122.641 151.030,122.672 150.874,122.690 150.717,122.696 7.000,122.696 6.843,122.690 6.687,122.672 6.533,122.641 6.381,122.598 6.234,122.544 6.092,122.478 5.955,122.402 5.824,122.314 5.701,122.217 5.585,122.110 5.479,121.995 5.381,121.872 5.294,121.741 5.217,121.604 5.152,121.462 5.097,121.314 5.055,121.163 5.024,121.009 5.006,120.853 4.999,120.696 5.000,7.000 5.006,6.843 5.024,6.687 5.055,6.533 5.097,6.381 5.152,6.234 5.217,6.092 5.294,5.955 5.381,5.824 5.479,5.701 5.585,5.585 5.701,5.479 5.824,5.381 5.955,5.294 6.092,5.217 6.234,5.152 6.381,5.097 6.533,5.055 6.687,5.024 6.843,5.006 7.000,4.999" style="fill:none;stroke-width:0.2;stroke:black"/>
<polygon points="149.341,118.694 149.069,118.832 148.853,119.048 148.715,119.320 148.667,119.621 148.715,119.923 148.853,120.194 149.069,120.410 149.341,120.549 149.642,120.596 149.943,120.549 150.215,120.410 150.431,120.194 150.569,119.923 150.617,119.621 150.569,119.320 150.431,119.048 150.215,118.832 149.943,118.694 149.642,118.646" style="fill:none;stroke-width:0.2;stroke:black"/>
<polygon points="78.557,118.694 78.285,118.832 78.069,119.048 77.931,119.320 77.883,119.621 77.931,119.923 78.069,120.194 78.285,120.410 78.557,120.549 78.858,120.596 79.160,120.549 79.431,120.410 79.647,120.194 79.785,119.923 79.833,119.621 79.785,119.320 79.647,119.048 79.431,118.832 79.160,118.694 78.858,118.646" style="fill:none;stroke-width:0.2;stroke:black"/>
<polygon points="7.773,118.694 7.501,118.832 7.286,119.048 7.147,119.320 7.100,119.621 7.147,119.923 7.286,120.194 7.501,120.410 7.773,120.549 8.074,120.596 8.376,120.549 8.648,120.410 8.863,120.194 9.002,119.923 9.050,119.621 9.002,119.320 8.863,119.048 8.648,118.832 8.376,118.694 8.074,118.646" style="fill:none;stroke-width:0.2;stroke:black"/>
<polygon points="7.773,7.147 7.501,7.286 7.286,7.501 7.147,7.773 7.100,8.074 7.147,8.376 7.286,8.648 7.501,8.863 7.773,9.002 8.074,9.050 8.376,9.002 8.648,8.863 8.863,8.648 9.002,8.376 9.050,8.074 9.002,7.773 8.863,7.501 8.648,7.286 8.376,7.147 8.074,7.100" style="fill:none;stroke-width:0.2;stroke:black"/>
<polygon points="78.557,7.147 78.285,7.286 78.069,7.501 77.931,7.773 77.883,8.074 77.931,8.376 78.069,8.648 78.285,8.863 78.557,9.002 78.858,9.049 79.160,9.002 79.431,8.863 79.647,8.648 79.785,8.376 79.833,8.074 79.785,7.773 79.647,7.501 79.431,7.286 79.160,7.147 78.858,7.100" style="fill:none;stroke-width:0.2;stroke:black"/>
<polygon points="149.341,7.147 149.069,7.286 148.853,7.501 148.715,7.773 148.667,8.074 148.715,8.376 148.853,8.648 149.069,8.863 149.341,9.002 149.642,9.049 149.943,9.002 150.215,8.863 150.431,8.648 150.569,8.376 150.617,8.074 150.569,7.773 150.431,7.501 150.215,7.286 149.943,7.147 149.642,7.100" style="fill:none;stroke-width:0.2;stroke:black"/>
</svg>
