  0
SECTION
  2
HEADER
  9
$ACADVER
  1
AC1009
  9
$EXTMIN
 10
0.0
 20
0.0
 30
0.0
  9
$EXTMAX
 10
1000.0
 20
1000.0
 30
0.0
  9
$FILLMODE
 70
 0
  9
$SPLFRAME
 70
 1
  0
ENDSEC
  0
SECTION
  2
TABLES
  0
TABLE
  2
LAYER
 70
1
  0
LAYER
  2
0
 70
     0
 62
     7
  6
CONTINUOUS
  0
ENDTAB
  0
ENDSEC
  0
SECTION
  2
ENTITIES
  0
LINE
  8
0
 62
     0
 10
145.81
 20
117.781
 30
0.0
 11
145.967
 21
117.776
 31
0.0
  0
LINE
  8
0
 62
     0
 10
145.967
 20
117.776
 30
0.0
 11
146.124
 21
117.758
 31
0.0
  0
LINE
  8
0
 62
     0
 10
146.124
 20
117.758
 30
0.0
 11
146.278
 21
117.726
 31
0.0
  0
LINE
  8
0
 62
     0
 10
146.278
 20
117.726
 30
0.0
 11
146.429
 21
117.685
 31
0.0
  0
LINE
  8
0
 62
     0
 10
146.429
 20
117.685
 30
0.0
 11
146.576
 21
117.63
 31
0.0
  0
LINE
  8
0
 62
     0
 10
146.576
 20
117.63
 30
0.0
 11
146.719
 21
117.563
 31
0.0
  0
LINE
  8
0
 62
     0
 10
146.719
 20
117.563
 30
0.0
 11
146.856
 21
117.487
 31
0.0
  0
LINE
  8
0
 62
     0
 10
146.856
 20
117.487
 30
0.0
 11
146.986
 21
117.399
 31
0.0
  0
LINE
  8
0
 62
     0
 10
146.986
 20
117.399
 30
0.0
 11
147.11
 21
117.301
 31
0.0
  0
LINE
  8
0
 62
     0
 10
147.11
 20
117.301
 30
0.0
 11
147.224
 21
117.195
 31
0.0
  0
LINE
  8
0
 62
     0
 10
147.224
 20
117.195
 30
0.0
 11
147.332
 21
117.08
 31
0.0
  0
LINE
  8
0
 62
     0
 10
147.332
 20
117.08
 30
0.0
 11
147.429
 21
116.957
 31
0.0
  0
LINE
  8
0
 62
     0
 10
147.429
 20
116.957
 30
0.0
 11
147.516
 21
116.826
 31
0.0
  0
LINE
  8
0
 62
     0
 10
147.516
 20
116.826
 30
0.0
 11
147.593
 21
116.689
 31
0.0
  0
LINE
  8
0
 62
     0
 10
147.593
 20
116.689
 30
0.0
 11
147.658
 21
116.546
 31
0.0
  0
LINE
  8
0
 62
     0
 10
147.658
 20
116.546
 30
0.0
 11
147.713
 21
116.4
 31
0.0
  0
LINE
  8
0
 62
     0
 10
147.713
 20
116.4
 30
0.0
 11
147.756
 21
116.248
 31
0.0
  0
LINE
  8
0
 62
     0
 10
147.756
 20
116.248
 30
0.0
 11
147.786
 21
116.094
 31
0.0
  0
LINE
  8
0
 62
     0
 10
147.786
 20
116.094
 30
0.0
 11
147.804
 21
115.939
 31
0.0
  0
LINE
  8
0
 62
     0
 10
147.804
 20
115.939
 30
0.0
 11
147.811
 21
115.781
 31
0.0
  0
LINE
  8
0
 62
     0
 10
147.811
 20
115.781
 30
0.0
 11
147.811
 21
2.08497
 31
0.0
  0
LINE
  8
0
 62
     0
 10
147.811
 20
2.08497
 30
0.0
 11
147.804
 21
1.92787
 31
0.0
  0
LINE
  8
0
 62
     0
 10
147.804
 20
1.92787
 30
0.0
 11
147.786
 21
1.77216
 31
0.0
  0
LINE
  8
0
 62
     0
 10
147.786
 20
1.77216
 30
0.0
 11
147.756
 21
1.61782
 31
0.0
  0
LINE
  8
0
 62
     0
 10
147.756
 20
1.61782
 30
0.0
 11
147.713
 21
1.46623
 31
0.0
  0
LINE
  8
0
 62
     0
 10
147.713
 20
1.46623
 30
0.0
 11
147.658
 21
1.31878
 31
0.0
  0
LINE
  8
0
 62
     0
 10
147.658
 20
1.31878
 30
0.0
 11
147.593
 21
1.17685
 31
0.0
  0
LINE
  8
0
 62
     0
 10
147.593
 20
1.17685
 30
0.0
 11
147.516
 21
1.04042
 31
0.0
  0
LINE
  8
0
 62
     0
 10
147.516
 20
1.04042
 30
0.0
 11
147.429
 21
0.909507
 31
0.0
  0
LINE
  8
0
 62
     0
 10
147.429
 20
0.909507
 30
0.0
 11
147.332
 21
0.785481
 31
0.0
  0
LINE
  8
0
 62
     0
 10
147.332
 20
0.785481
 30
0.0
 11
147.224
 21
0.671103
 31
0.0
  0
LINE
  8
0
 62
     0
 10
147.224
 20
0.671103
 30
0.0
 11
147.11
 21
0.563619
 31
0.0
  0
LINE
  8
0
 62
     0
 10
147.11
 20
0.563619
 30
0.0
 11
146.986
 21
0.467155
 31
0.0
  0
LINE
  8
0
 62
     0
 10
146.986
 20
0.467155
 30
0.0
 11
146.856
 21
0.378961
 31
0.0
  0
LINE
  8
0
 62
     0
 10
146.856
 20
0.378961
 30
0.0
 11
146.719
 21
0.303168
 31
0.0
  0
LINE
  8
0
 62
     0
 10
146.719
 20
0.303168
 30
0.0
 11
146.576
 21
0.237023
 31
0.0
  0
LINE
  8
0
 62
     0
 10
146.576
 20
0.237023
 30
0.0
 11
146.429
 21
0.183279
 31
0.0
  0
LINE
  8
0
 62
     0
 10
146.429
 20
0.183279
 30
0.0
 11
146.278
 21
0.14056
 31
0.0
  0
LINE
  8
0
 62
     0
 10
146.278
 20
0.14056
 30
0.0
 11
146.124
 21
0.108865
 31
0.0
  0
LINE
  8
0
 62
     0
 10
146.124
 20
0.108865
 30
0.0
 11
145.967
 21
0.0909507
 31
0.0
  0
LINE
  8
0
 62
     0
 10
145.967
 20
0.0909507
 30
0.0
 11
145.81
 21
0.0854385
 31
0.0
  0
LINE
  8
0
 62
     0
 10
145.81
 20
0.0854385
 30
0.0
 11
2.09324
 21
0.0854385
 31
0.0
  0
LINE
  8
0
 62
     0
 10
2.09324
 20
0.0854385
 30
0.0
 11
1.93614
 21
0.0909507
 31
0.0
  0
LINE
  8
0
 62
     0
 10
1.93614
 20
0.0909507
 30
0.0
 11
1.78043
 21
0.108865
 31
0.0
  0
LINE
  8
0
 62
     0
 10
1.78043
 20
0.108865
 30
0.0
 11
1.62609
 21
0.14056
 31
0.0
  0
LINE
  8
0
 62
     0
 10
1.62609
 20
0.14056
 30
0.0
 11
1.4745
 21
0.183279
 31
0.0
  0
LINE
  8
0
 62
     0
 10
1.4745
 20
0.183279
 30
0.0
 11
1.32843
 21
0.237023
 31
0.0
  0
LINE
  8
0
 62
     0
 10
1.32843
 20
0.237023
 30
0.0
 11
1.18511
 21
0.303168
 31
0.0
  0
LINE
  8
0
 62
     0
 10
1.18511
 20
0.303168
 30
0.0
 11
1.04869
 21
0.378961
 31
0.0
  0
LINE
  8
0
 62
     0
 10
1.04869
 20
0.378961
 30
0.0
 11
0.917773
 21
0.467155
 31
0.0
  0
LINE
  8
0
 62
     0
 10
0.917773
 20
0.467155
 30
0.0
 11
0.795129
 21
0.563619
 31
0.0
  0
LINE
  8
0
 62
     0
 10
0.795129
 20
0.563619
 30
0.0
 11
0.679372
 21
0.671103
 31
0.0
  0
LINE
  8
0
 62
     0
 10
0.679372
 20
0.671103
 30
0.0
 11
0.573264
 21
0.785481
 31
0.0
  0
LINE
  8
0
 62
     0
 10
0.573264
 20
0.785481
 30
0.0
 11
0.475424
 21
0.909507
 31
0.0
  0
LINE
  8
0
 62
     0
 10
0.475424
 20
0.909507
 30
0.0
 11
0.38723
 21
1.04042
 31
0.0
  0
LINE
  8
0
 62
     0
 10
0.38723
 20
1.04042
 30
0.0
 11
0.311437
 21
1.17685
 31
0.0
  0
LINE
  8
0
 62
     0
 10
0.311437
 20
1.17685
 30
0.0
 11
0.245291
 21
1.31878
 31
0.0
  0
LINE
  8
0
 62
     0
 10
0.245291
 20
1.31878
 30
0.0
 11
0.190169
 21
1.46623
 31
0.0
  0
LINE
  8
0
 62
     0
 10
0.190169
 20
1.46623
 30
0.0
 11
0.148828
 21
1.61782
 31
0.0
  0
LINE
  8
0
 62
     0
 10
0.148828
 20
1.61782
 30
0.0
 11
0.117133
 21
1.77216
 31
0.0
  0
LINE
  8
0
 62
     0
 10
0.117133
 20
1.77216
 30
0.0
 11
0.0992188
 21
1.92787
 31
0.0
  0
LINE
  8
0
 62
     0
 10
0.0992188
 20
1.92787
 30
0.0
 11
0.0923286
 21
2.08497
 31
0.0
  0
LINE
  8
0
 62
     0
 10
0.0923286
 20
2.08497
 30
0.0
 11
0.0937066
 21
115.781
 31
0.0
  0
LINE
  8
0
 62
     0
 10
0.0937066
 20
115.781
 30
0.0
 11
0.0992188
 21
115.939
 31
0.0
  0
LINE
  8
0
 62
     0
 10
0.0992188
 20
115.939
 30
0.0
 11
0.117133
 21
116.094
 31
0.0
  0
LINE
  8
0
 62
     0
 10
0.117133
 20
116.094
 30
0.0
 11
0.148828
 21
116.248
 31
0.0
  0
LINE
  8
0
 62
     0
 10
0.148828
 20
116.248
 30
0.0
 11
0.190169
 21
116.4
 31
0.0
  0
LINE
  8
0
 62
     0
 10
0.190169
 20
116.4
 30
0.0
 11
0.245291
 21
116.546
 31
0.0
  0
LINE
  8
0
 62
     0
 10
0.245291
 20
116.546
 30
0.0
 11
0.311437
 21
116.689
 31
0.0
  0
LINE
  8
0
 62
     0
 10
0.311437
 20
116.689
 30
0.0
 11
0.38723
 21
116.826
 31
0.0
  0
LINE
  8
0
 62
     0
 10
0.38723
 20
116.826
 30
0.0
 11
0.475424
 21
116.957
 31
0.0
  0
LINE
  8
0
 62
     0
 10
0.475424
 20
116.957
 30
0.0
 11
0.573264
 21
117.08
 31
0.0
  0
LINE
  8
0
 62
     0
 10
0.573264
 20
117.08
 30
0.0
 11
0.679372
 21
117.195
 31
0.0
  0
LINE
  8
0
 62
     0
 10
0.679372
 20
117.195
 30
0.0
 11
0.795129
 21
117.301
 31
0.0
  0
LINE
  8
0
 62
     0
 10
0.795129
 20
117.301
 30
0.0
 11
0.917773
 21
117.399
 31
0.0
  0
LINE
  8
0
 62
     0
 10
0.917773
 20
117.399
 30
0.0
 11
1.04869
 21
117.487
 31
0.0
  0
LINE
  8
0
 62
     0
 10
1.04869
 20
117.487
 30
0.0
 11
1.18511
 21
117.563
 31
0.0
  0
LINE
  8
0
 62
     0
 10
1.18511
 20
117.563
 30
0.0
 11
1.32843
 21
117.63
 31
0.0
  0
LINE
  8
0
 62
     0
 10
1.32843
 20
117.63
 30
0.0
 11
1.4745
 21
117.685
 31
0.0
  0
LINE
  8
0
 62
     0
 10
1.4745
 20
117.685
 30
0.0
 11
1.62609
 21
117.726
 31
0.0
  0
LINE
  8
0
 62
     0
 10
1.62609
 20
117.726
 30
0.0
 11
1.78043
 21
117.758
 31
0.0
  0
LINE
  8
0
 62
     0
 10
1.78043
 20
117.758
 30
0.0
 11
1.93614
 21
117.776
 31
0.0
  0
LINE
  8
0
 62
     0
 10
1.93614
 20
117.776
 30
0.0
 11
2.09324
 21
117.782
 31
0.0
  0
LINE
  8
0
 62
     0
 10
2.09324
 20
117.782
 30
0.0
 11
145.81
 21
117.781
 31
0.0
  0
LINE
  8
0
 62
     0
 10
144.435
 20
4.08725
 30
0.0
 11
144.162
 21
3.94945
 31
0.0
  0
LINE
  8
0
 62
     0
 10
144.162
 20
3.94945
 30
0.0
 11
143.947
 21
3.73309
 31
0.0
  0
LINE
  8
0
 62
     0
 10
143.947
 20
3.73309
 30
0.0
 11
143.809
 21
3.46025
 31
0.0
  0
LINE
  8
0
 62
     0
 10
143.809
 20
3.46025
 30
0.0
 11
143.761
 21
3.15984
 31
0.0
  0
LINE
  8
0
 62
     0
 10
143.761
 20
3.15984
 30
0.0
 11
143.809
 21
2.85805
 31
0.0
  0
LINE
  8
0
 62
     0
 10
143.809
 20
2.85805
 30
0.0
 11
143.947
 21
2.58658
 31
0.0
  0
LINE
  8
0
 62
     0
 10
143.947
 20
2.58658
 30
0.0
 11
144.162
 21
2.37023
 31
0.0
  0
LINE
  8
0
 62
     0
 10
144.162
 20
2.37023
 30
0.0
 11
144.435
 21
2.23242
 31
0.0
  0
LINE
  8
0
 62
     0
 10
144.435
 20
2.23242
 30
0.0
 11
144.735
 21
2.18557
 31
0.0
  0
LINE
  8
0
 62
     0
 10
144.735
 20
2.18557
 30
0.0
 11
145.037
 21
2.23242
 31
0.0
  0
LINE
  8
0
 62
     0
 10
145.037
 20
2.23242
 30
0.0
 11
145.308
 21
2.37023
 31
0.0
  0
LINE
  8
0
 62
     0
 10
145.308
 20
2.37023
 30
0.0
 11
145.525
 21
2.58658
 31
0.0
  0
LINE
  8
0
 62
     0
 10
145.525
 20
2.58658
 30
0.0
 11
145.663
 21
2.85805
 31
0.0
  0
LINE
  8
0
 62
     0
 10
145.663
 20
2.85805
 30
0.0
 11
145.711
 21
3.15984
 31
0.0
  0
LINE
  8
0
 62
     0
 10
145.711
 20
3.15984
 30
0.0
 11
145.663
 21
3.46025
 31
0.0
  0
LINE
  8
0
 62
     0
 10
145.663
 20
3.46025
 30
0.0
 11
145.525
 21
3.73309
 31
0.0
  0
LINE
  8
0
 62
     0
 10
145.525
 20
3.73309
 30
0.0
 11
145.308
 21
3.94945
 31
0.0
  0
LINE
  8
0
 62
     0
 10
145.308
 20
3.94945
 30
0.0
 11
145.037
 21
4.08725
 31
0.0
  0
LINE
  8
0
 62
     0
 10
145.037
 20
4.08725
 30
0.0
 11
144.735
 21
4.13551
 31
0.0
  0
LINE
  8
0
 62
     0
 10
144.735
 20
4.13551
 30
0.0
 11
144.435
 21
4.08725
 31
0.0
  0
LINE
  8
0
 62
     0
 10
73.6505
 20
4.08725
 30
0.0
 11
73.3792
 21
3.94945
 31
0.0
  0
LINE
  8
0
 62
     0
 10
73.3792
 20
3.94945
 30
0.0
 11
73.1629
 21
3.73309
 31
0.0
  0
LINE
  8
0
 62
     0
 10
73.1629
 20
3.73309
 30
0.0
 11
73.025
 21
3.46025
 31
0.0
  0
LINE
  8
0
 62
     0
 10
73.025
 20
3.46025
 30
0.0
 11
72.9767
 21
3.15984
 31
0.0
  0
LINE
  8
0
 62
     0
 10
72.9767
 20
3.15984
 30
0.0
 11
73.025
 21
2.85805
 31
0.0
  0
LINE
  8
0
 62
     0
 10
73.025
 20
2.85805
 30
0.0
 11
73.1629
 21
2.58658
 31
0.0
  0
LINE
  8
0
 62
     0
 10
73.1629
 20
2.58658
 30
0.0
 11
73.3792
 21
2.37023
 31
0.0
  0
LINE
  8
0
 62
     0
 10
73.3792
 20
2.37023
 30
0.0
 11
73.6505
 21
2.23242
 31
0.0
  0
LINE
  8
0
 62
     0
 10
73.6505
 20
2.23242
 30
0.0
 11
73.9525
 21
2.18557
 31
0.0
  0
LINE
  8
0
 62
     0
 10
73.9525
 20
2.18557
 30
0.0
 11
74.2541
 21
2.23242
 31
0.0
  0
LINE
  8
0
 62
     0
 10
74.2541
 20
2.23242
 30
0.0
 11
74.5243
 21
2.37023
 31
0.0
  0
LINE
  8
0
 62
     0
 10
74.5243
 20
2.37023
 30
0.0
 11
74.7406
 21
2.58658
 31
0.0
  0
LINE
  8
0
 62
     0
 10
74.7406
 20
2.58658
 30
0.0
 11
74.8785
 21
2.85805
 31
0.0
  0
LINE
  8
0
 62
     0
 10
74.8785
 20
2.85805
 30
0.0
 11
74.9268
 21
3.15984
 31
0.0
  0
LINE
  8
0
 62
     0
 10
74.9268
 20
3.15984
 30
0.0
 11
74.8785
 21
3.46025
 31
0.0
  0
LINE
  8
0
 62
     0
 10
74.8785
 20
3.46025
 30
0.0
 11
74.7406
 21
3.73309
 31
0.0
  0
LINE
  8
0
 62
     0
 10
74.7406
 20
3.73309
 30
0.0
 11
74.5243
 21
3.94945
 31
0.0
  0
LINE
  8
0
 62
     0
 10
74.5243
 20
3.94945
 30
0.0
 11
74.2541
 21
4.08725
 31
0.0
  0
LINE
  8
0
 62
     0
 10
74.2541
 20
4.08725
 30
0.0
 11
73.9525
 21
4.13551
 31
0.0
  0
LINE
  8
0
 62
     0
 10
73.9525
 20
4.13551
 30
0.0
 11
73.6505
 21
4.08725
 31
0.0
  0
LINE
  8
0
 62
     0
 10
2.86632
 20
4.08725
 30
0.0
 11
2.59485
 21
3.94945
 31
0.0
  0
LINE
  8
0
 62
     0
 10
2.59485
 20
3.94945
 30
0.0
 11
2.37987
 21
3.73309
 31
0.0
  0
LINE
  8
0
 62
     0
 10
2.37987
 20
3.73309
 30
0.0
 11
2.24069
 21
3.46025
 31
0.0
  0
LINE
  8
0
 62
     0
 10
2.24069
 20
3.46025
 30
0.0
 11
2.19384
 21
3.15984
 31
0.0
  0
LINE
  8
0
 62
     0
 10
2.19384
 20
3.15984
 30
0.0
 11
2.24069
 21
2.85805
 31
0.0
  0
LINE
  8
0
 62
     0
 10
2.24069
 20
2.85805
 30
0.0
 11
2.37987
 21
2.58658
 31
0.0
  0
LINE
  8
0
 62
     0
 10
2.37987
 20
2.58658
 30
0.0
 11
2.59485
 21
2.37023
 31
0.0
  0
LINE
  8
0
 62
     0
 10
2.59485
 20
2.37023
 30
0.0
 11
2.86632
 21
2.23242
 31
0.0
  0
LINE
  8
0
 62
     0
 10
2.86632
 20
2.23242
 30
0.0
 11
3.16811
 21
2.18557
 31
0.0
  0
LINE
  8
0
 62
     0
 10
3.16811
 20
2.18557
 30
0.0
 11
3.4699
 21
2.23242
 31
0.0
  0
LINE
  8
0
 62
     0
 10
3.4699
 20
2.23242
 30
0.0
 11
3.74138
 21
2.37023
 31
0.0
  0
LINE
  8
0
 62
     0
 10
3.74138
 20
2.37023
 30
0.0
 11
3.95633
 21
2.58658
 31
0.0
  0
LINE
  8
0
 62
     0
 10
3.95633
 20
2.58658
 30
0.0
 11
4.09554
 21
2.85805
 31
0.0
  0
LINE
  8
0
 62
     0
 10
4.09554
 20
2.85805
 30
0.0
 11
4.14376
 21
3.15984
 31
0.0
  0
LINE
  8
0
 62
     0
 10
4.14376
 20
3.15984
 30
0.0
 11
4.09554
 21
3.46025
 31
0.0
  0
LINE
  8
0
 62
     0
 10
4.09554
 20
3.46025
 30
0.0
 11
3.95633
 21
3.73309
 31
0.0
  0
LINE
  8
0
 62
     0
 10
3.95633
 20
3.73309
 30
0.0
 11
3.74138
 21
3.94945
 31
0.0
  0
LINE
  8
0
 62
     0
 10
3.74138
 20
3.94945
 30
0.0
 11
3.4699
 21
4.08725
 31
0.0
  0
LINE
  8
0
 62
     0
 10
3.4699
 20
4.08725
 30
0.0
 11
3.16811
 21
4.13551
 31
0.0
  0
LINE
  8
0
 62
     0
 10
3.16811
 20
4.13551
 30
0.0
 11
2.86632
 21
4.08725
 31
0.0
  0
LINE
  8
0
 62
     0
 10
122.678
 20
11.5769
 30
0.0
 11
136.318
 21
9.17222
 31
0.0
  0
LINE
  8
0
 62
     0
 10
136.318
 20
9.17222
 30
0.0
 11
138.724
 21
22.8107
 31
0.0
  0
LINE
  8
0
 62
     0
 10
138.724
 20
22.8107
 30
0.0
 11
125.083
 21
25.2154
 31
0.0
  0
LINE
  8
0
 62
     0
 10
125.083
 20
25.2154
 30
0.0
 11
122.678
 21
11.5769
 31
0.0
  0
LINE
  8
0
 62
     0
 10
8.76847
 20
28.1437
 30
0.0
 11
22.6191
 21
28.1437
 31
0.0
  0
LINE
  8
0
 62
     0
 10
22.6191
 20
28.1437
 30
0.0
 11
22.6191
 21
14.2944
 31
0.0
  0
LINE
  8
0
 62
     0
 10
22.6191
 20
14.2944
 30
0.0
 11
8.76847
 21
14.2944
 31
0.0
  0
LINE
  8
0
 62
     0
 10
8.76847
 20
14.2944
 30
0.0
 11
8.76847
 21
28.1437
 31
0.0
  0
LINE
  8
0
 62
     0
 10
27.8185
 20
28.1437
 30
0.0
 11
41.6691
 21
28.1437
 31
0.0
  0
LINE
  8
0
 62
     0
 10
41.6691
 20
28.1437
 30
0.0
 11
41.6691
 21
14.2944
 31
0.0
  0
LINE
  8
0
 62
     0
 10
41.6691
 20
14.2944
 30
0.0
 11
27.8185
 21
14.2944
 31
0.0
  0
LINE
  8
0
 62
     0
 10
27.8185
 20
14.2944
 30
0.0
 11
27.8185
 21
28.1437
 31
0.0
  0
LINE
  8
0
 62
     0
 10
46.8683
 20
32.9062
 30
0.0
 11
60.7191
 21
32.9062
 31
0.0
  0
LINE
  8
0
 62
     0
 10
60.7191
 20
32.9062
 30
0.0
 11
60.7191
 21
19.0555
 31
0.0
  0
LINE
  8
0
 62
     0
 10
60.7191
 20
19.0555
 30
0.0
 11
46.8683
 21
19.0555
 31
0.0
  0
LINE
  8
0
 62
     0
 10
46.8683
 20
19.0555
 30
0.0
 11
46.8683
 21
32.9062
 31
0.0
  0
LINE
  8
0
 62
     0
 10
65.9183
 20
32.9062
 30
0.0
 11
79.7691
 21
32.9062
 31
0.0
  0
LINE
  8
0
 62
     0
 10
79.7691
 20
32.9062
 30
0.0
 11
79.7691
 21
19.0555
 31
0.0
  0
LINE
  8
0
 62
     0
 10
79.7691
 20
19.0555
 30
0.0
 11
65.9183
 21
19.0555
 31
0.0
  0
LINE
  8
0
 62
     0
 10
65.9183
 20
19.0555
 30
0.0
 11
65.9183
 21
32.9062
 31
0.0
  0
LINE
  8
0
 62
     0
 10
84.9683
 20
32.9062
 30
0.0
 11
98.8191
 21
32.9062
 31
0.0
  0
LINE
  8
0
 62
     0
 10
98.8191
 20
32.9062
 30
0.0
 11
98.8191
 21
19.0555
 31
0.0
  0
LINE
  8
0
 62
     0
 10
98.8191
 20
19.0555
 30
0.0
 11
84.9683
 21
19.0555
 31
0.0
  0
LINE
  8
0
 62
     0
 10
84.9683
 20
19.0555
 30
0.0
 11
84.9683
 21
32.9062
 31
0.0
  0
LINE
  8
0
 62
     0
 10
104.018
 20
32.9062
 30
0.0
 11
117.868
 21
32.9062
 31
0.0
  0
LINE
  8
0
 62
     0
 10
117.868
 20
32.9062
 30
0.0
 11
117.868
 21
19.0555
 31
0.0
  0
LINE
  8
0
 62
     0
 10
117.868
 20
19.0555
 30
0.0
 11
104.018
 21
19.0555
 31
0.0
  0
LINE
  8
0
 62
     0
 10
104.018
 20
19.0555
 30
0.0
 11
104.018
 21
32.9062
 31
0.0
  0
LINE
  8
0
 62
     0
 10
8.76847
 20
47.1936
 30
0.0
 11
22.6191
 21
47.1936
 31
0.0
  0
LINE
  8
0
 62
     0
 10
22.6191
 20
47.1936
 30
0.0
 11
22.6191
 21
33.3444
 31
0.0
  0
LINE
  8
0
 62
     0
 10
22.6191
 20
33.3444
 30
0.0
 11
8.76847
 21
33.3444
 31
0.0
  0
LINE
  8
0
 62
     0
 10
8.76847
 20
33.3444
 30
0.0
 11
8.76847
 21
47.1936
 31
0.0
  0
LINE
  8
0
 62
     0
 10
27.8185
 20
47.1936
 30
0.0
 11
41.6691
 21
47.1936
 31
0.0
  0
LINE
  8
0
 62
     0
 10
41.6691
 20
47.1936
 30
0.0
 11
41.6691
 21
33.3444
 31
0.0
  0
LINE
  8
0
 62
     0
 10
41.6691
 20
33.3444
 30
0.0
 11
27.8185
 21
33.3444
 31
0.0
  0
LINE
  8
0
 62
     0
 10
27.8185
 20
33.3444
 30
0.0
 11
27.8185
 21
47.1936
 31
0.0
  0
LINE
  8
0
 62
     0
 10
46.8683
 20
51.9561
 30
0.0
 11
60.7191
 21
51.9561
 31
0.0
  0
LINE
  8
0
 62
     0
 10
60.7191
 20
51.9561
 30
0.0
 11
60.7191
 21
38.1056
 31
0.0
  0
LINE
  8
0
 62
     0
 10
60.7191
 20
38.1056
 30
0.0
 11
46.8683
 21
38.1056
 31
0.0
  0
LINE
  8
0
 62
     0
 10
46.8683
 20
38.1056
 30
0.0
 11
46.8683
 21
51.9561
 31
0.0
  0
LINE
  8
0
 62
     0
 10
65.9183
 20
51.9561
 30
0.0
 11
79.7691
 21
51.9561
 31
0.0
  0
LINE
  8
0
 62
     0
 10
79.7691
 20
51.9561
 30
0.0
 11
79.7691
 21
38.1056
 31
0.0
  0
LINE
  8
0
 62
     0
 10
79.7691
 20
38.1056
 30
0.0
 11
65.9183
 21
38.1056
 31
0.0
  0
LINE
  8
0
 62
     0
 10
65.9183
 20
38.1056
 30
0.0
 11
65.9183
 21
51.9561
 31
0.0
  0
LINE
  8
0
 62
     0
 10
84.9683
 20
51.9561
 30
0.0
 11
98.8191
 21
51.9561
 31
0.0
  0
LINE
  8
0
 62
     0
 10
98.8191
 20
51.9561
 30
0.0
 11
98.8191
 21
38.1056
 31
0.0
  0
LINE
  8
0
 62
     0
 10
98.8191
 20
38.1056
 30
0.0
 11
84.9683
 21
38.1056
 31
0.0
  0
LINE
  8
0
 62
     0
 10
84.9683
 20
38.1056
 30
0.0
 11
84.9683
 21
51.9561
 31
0.0
  0
LINE
  8
0
 62
     0
 10
104.018
 20
51.9561
 30
0.0
 11
117.868
 21
51.9561
 31
0.0
  0
LINE
  8
0
 62
     0
 10
117.868
 20
51.9561
 30
0.0
 11
117.868
 21
38.1056
 31
0.0
  0
LINE
  8
0
 62
     0
 10
117.868
 20
38.1056
 30
0.0
 11
104.018
 21
38.1056
 31
0.0
  0
LINE
  8
0
 62
     0
 10
104.018
 20
38.1056
 30
0.0
 11
104.018
 21
51.9561
 31
0.0
  0
LINE
  8
0
 62
     0
 10
123.068
 20
51.9561
 30
0.0
 11
136.919
 21
51.9561
 31
0.0
  0
LINE
  8
0
 62
     0
 10
136.919
 20
51.9561
 30
0.0
 11
136.919
 21
38.1056
 31
0.0
  0
LINE
  8
0
 62
     0
 10
136.919
 20
38.1056
 30
0.0
 11
123.068
 21
38.1056
 31
0.0
  0
LINE
  8
0
 62
     0
 10
123.068
 20
38.1056
 30
0.0
 11
123.068
 21
51.9561
 31
0.0
  0
LINE
  8
0
 62
     0
 10
8.76847
 20
66.2436
 30
0.0
 11
22.6191
 21
66.2436
 31
0.0
  0
LINE
  8
0
 62
     0
 10
22.6191
 20
66.2436
 30
0.0
 11
22.6191
 21
52.3946
 31
0.0
  0
LINE
  8
0
 62
     0
 10
22.6191
 20
52.3946
 30
0.0
 11
8.76847
 21
52.3946
 31
0.0
  0
LINE
  8
0
 62
     0
 10
8.76847
 20
52.3946
 30
0.0
 11
8.76847
 21
66.2436
 31
0.0
  0
LINE
  8
0
 62
     0
 10
27.8185
 20
66.2436
 30
0.0
 11
41.6691
 21
66.2436
 31
0.0
  0
LINE
  8
0
 62
     0
 10
41.6691
 20
66.2436
 30
0.0
 11
41.6691
 21
52.3946
 31
0.0
  0
LINE
  8
0
 62
     0
 10
41.6691
 20
52.3946
 30
0.0
 11
27.8185
 21
52.3946
 31
0.0
  0
LINE
  8
0
 62
     0
 10
27.8185
 20
52.3946
 30
0.0
 11
27.8185
 21
66.2436
 31
0.0
  0
LINE
  8
0
 62
     0
 10
46.8683
 20
71.0061
 30
0.0
 11
60.7191
 21
71.0061
 31
0.0
  0
LINE
  8
0
 62
     0
 10
60.7191
 20
71.0061
 30
0.0
 11
60.7191
 21
57.1556
 31
0.0
  0
LINE
  8
0
 62
     0
 10
60.7191
 20
57.1556
 30
0.0
 11
46.8683
 21
57.1556
 31
0.0
  0
LINE
  8
0
 62
     0
 10
46.8683
 20
57.1556
 30
0.0
 11
46.8683
 21
71.0061
 31
0.0
  0
LINE
  8
0
 62
     0
 10
65.9183
 20
71.0061
 30
0.0
 11
79.7691
 21
71.0061
 31
0.0
  0
LINE
  8
0
 62
     0
 10
79.7691
 20
71.0061
 30
0.0
 11
79.7691
 21
57.1556
 31
0.0
  0
LINE
  8
0
 62
     0
 10
79.7691
 20
57.1556
 30
0.0
 11
65.9183
 21
57.1556
 31
0.0
  0
LINE
  8
0
 62
     0
 10
65.9183
 20
57.1556
 30
0.0
 11
65.9183
 21
71.0061
 31
0.0
  0
LINE
  8
0
 62
     0
 10
84.9683
 20
71.0061
 30
0.0
 11
98.8191
 21
71.0061
 31
0.0
  0
LINE
  8
0
 62
     0
 10
98.8191
 20
71.0061
 30
0.0
 11
98.8191
 21
57.1556
 31
0.0
  0
LINE
  8
0
 62
     0
 10
98.8191
 20
57.1556
 30
0.0
 11
84.9683
 21
57.1556
 31
0.0
  0
LINE
  8
0
 62
     0
 10
84.9683
 20
57.1556
 30
0.0
 11
84.9683
 21
71.0061
 31
0.0
  0
LINE
  8
0
 62
     0
 10
104.018
 20
71.0061
 30
0.0
 11
117.868
 21
71.0061
 31
0.0
  0
LINE
  8
0
 62
     0
 10
117.868
 20
71.0061
 30
0.0
 11
117.868
 21
57.1556
 31
0.0
  0
LINE
  8
0
 62
     0
 10
117.868
 20
57.1556
 30
0.0
 11
104.018
 21
57.1556
 31
0.0
  0
LINE
  8
0
 62
     0
 10
104.018
 20
57.1556
 30
0.0
 11
104.018
 21
71.0061
 31
0.0
  0
LINE
  8
0
 62
     0
 10
123.068
 20
71.0061
 30
0.0
 11
136.919
 21
71.0061
 31
0.0
  0
LINE
  8
0
 62
     0
 10
136.919
 20
71.0061
 30
0.0
 11
136.919
 21
57.1556
 31
0.0
  0
LINE
  8
0
 62
     0
 10
136.919
 20
57.1556
 30
0.0
 11
123.068
 21
57.1556
 31
0.0
  0
LINE
  8
0
 62
     0
 10
123.068
 20
57.1556
 30
0.0
 11
123.068
 21
71.0061
 31
0.0
  0
LINE
  8
0
 62
     0
 10
8.76847
 20
85.2936
 30
0.0
 11
22.6191
 21
85.2936
 31
0.0
  0
LINE
  8
0
 62
     0
 10
22.6191
 20
85.2936
 30
0.0
 11
22.6191
 21
71.4446
 31
0.0
  0
LINE
  8
0
 62
     0
 10
22.6191
 20
71.4446
 30
0.0
 11
8.76847
 21
71.4446
 31
0.0
  0
LINE
  8
0
 62
     0
 10
8.76847
 20
71.4446
 30
0.0
 11
8.76847
 21
85.2936
 31
0.0
  0
LINE
  8
0
 62
     0
 10
27.8185
 20
85.2936
 30
0.0
 11
41.6691
 21
85.2936
 31
0.0
  0
LINE
  8
0
 62
     0
 10
41.6691
 20
85.2936
 30
0.0
 11
41.6691
 21
71.4446
 31
0.0
  0
LINE
  8
0
 62
     0
 10
41.6691
 20
71.4446
 30
0.0
 11
27.8185
 21
71.4446
 31
0.0
  0
LINE
  8
0
 62
     0
 10
27.8185
 20
71.4446
 30
0.0
 11
27.8185
 21
85.2936
 31
0.0
  0
LINE
  8
0
 62
     0
 10
46.8683
 20
90.0561
 30
0.0
 11
60.7191
 21
90.0561
 31
0.0
  0
LINE
  8
0
 62
     0
 10
60.7191
 20
90.0561
 30
0.0
 11
60.7191
 21
76.2056
 31
0.0
  0
LINE
  8
0
 62
     0
 10
60.7191
 20
76.2056
 30
0.0
 11
46.8683
 21
76.2056
 31
0.0
  0
LINE
  8
0
 62
     0
 10
46.8683
 20
76.2056
 30
0.0
 11
46.8683
 21
90.0561
 31
0.0
  0
LINE
  8
0
 62
     0
 10
65.9183
 20
90.0561
 30
0.0
 11
79.7691
 21
90.0561
 31
0.0
  0
LINE
  8
0
 62
     0
 10
79.7691
 20
90.0561
 30
0.0
 11
79.7691
 21
76.2056
 31
0.0
  0
LINE
  8
0
 62
     0
 10
79.7691
 20
76.2056
 30
0.0
 11
65.9183
 21
76.2056
 31
0.0
  0
LINE
  8
0
 62
     0
 10
65.9183
 20
76.2056
 30
0.0
 11
65.9183
 21
90.0561
 31
0.0
  0
LINE
  8
0
 62
     0
 10
84.9683
 20
90.0561
 30
0.0
 11
98.8191
 21
90.0561
 31
0.0
  0
LINE
  8
0
 62
     0
 10
98.8191
 20
90.0561
 30
0.0
 11
98.8191
 21
76.2056
 31
0.0
  0
LINE
  8
0
 62
     0
 10
98.8191
 20
76.2056
 30
0.0
 11
84.9683
 21
76.2056
 31
0.0
  0
LINE
  8
0
 62
     0
 10
84.9683
 20
76.2056
 30
0.0
 11
84.9683
 21
90.0561
 31
0.0
  0
LINE
  8
0
 62
     0
 10
104.018
 20
90.0561
 30
0.0
 11
117.868
 21
90.0561
 31
0.0
  0
LINE
  8
0
 62
     0
 10
117.868
 20
90.0561
 30
0.0
 11
117.868
 21
76.2056
 31
0.0
  0
LINE
  8
0
 62
     0
 10
117.868
 20
76.2056
 30
0.0
 11
104.018
 21
76.2056
 31
0.0
  0
LINE
  8
0
 62
     0
 10
104.018
 20
76.2056
 30
0.0
 11
104.018
 21
90.0561
 31
0.0
  0
LINE
  8
0
 62
     0
 10
8.76847
 20
104.344
 30
0.0
 11
22.6191
 21
104.344
 31
0.0
  0
LINE
  8
0
 62
     0
 10
22.6191
 20
104.344
 30
0.0
 11
22.6191
 21
90.4946
 31
0.0
  0
LINE
  8
0
 62
     0
 10
22.6191
 20
90.4946
 30
0.0
 11
8.76847
 21
90.4946
 31
0.0
  0
LINE
  8
0
 62
     0
 10
8.76847
 20
90.4946
 30
0.0
 11
8.76847
 21
104.344
 31
0.0
  0
LINE
  8
0
 62
     0
 10
27.8185
 20
104.344
 30
0.0
 11
41.6691
 21
104.344
 31
0.0
  0
LINE
  8
0
 62
     0
 10
41.6691
 20
104.344
 30
0.0
 11
41.6691
 21
90.4946
 31
0.0
  0
LINE
  8
0
 62
     0
 10
41.6691
 20
90.4946
 30
0.0
 11
27.8185
 21
90.4946
 31
0.0
  0
LINE
  8
0
 62
     0
 10
27.8185
 20
90.4946
 30
0.0
 11
27.8185
 21
104.344
 31
0.0
  0
LINE
  8
0
 62
     0
 10
46.8683
 20
109.106
 30
0.0
 11
60.7191
 21
109.106
 31
0.0
  0
LINE
  8
0
 62
     0
 10
60.7191
 20
109.106
 30
0.0
 11
60.7191
 21
95.2556
 31
0.0
  0
LINE
  8
0
 62
     0
 10
60.7191
 20
95.2556
 30
0.0
 11
46.8683
 21
95.2556
 31
0.0
  0
LINE
  8
0
 62
     0
 10
46.8683
 20
95.2556
 30
0.0
 11
46.8683
 21
109.106
 31
0.0
  0
LINE
  8
0
 62
     0
 10
65.9183
 20
109.106
 30
0.0
 11
79.7691
 21
109.106
 31
0.0
  0
LINE
  8
0
 62
     0
 10
79.7691
 20
109.106
 30
0.0
 11
79.7691
 21
95.2556
 31
0.0
  0
LINE
  8
0
 62
     0
 10
79.7691
 20
95.2556
 30
0.0
 11
65.9183
 21
95.2556
 31
0.0
  0
LINE
  8
0
 62
     0
 10
65.9183
 20
95.2556
 30
0.0
 11
65.9183
 21
109.106
 31
0.0
  0
LINE
  8
0
 62
     0
 10
84.9683
 20
109.106
 30
0.0
 11
98.8191
 21
109.106
 31
0.0
  0
LINE
  8
0
 62
     0
 10
98.8191
 20
109.106
 30
0.0
 11
98.8191
 21
95.2556
 31
0.0
  0
LINE
  8
0
 62
     0
 10
98.8191
 20
95.2556
 30
0.0
 11
84.9683
 21
95.2556
 31
0.0
  0
LINE
  8
0
 62
     0
 10
84.9683
 20
95.2556
 30
0.0
 11
84.9683
 21
109.106
 31
0.0
  0
LINE
  8
0
 62
     0
 10
104.018
 20
109.106
 30
0.0
 11
117.868
 21
109.106
 31
0.0
  0
LINE
  8
0
 62
     0
 10
117.868
 20
109.106
 30
0.0
 11
117.868
 21
95.2556
 31
0.0
  0
LINE
  8
0
 62
     0
 10
117.868
 20
95.2556
 30
0.0
 11
104.018
 21
95.2556
 31
0.0
  0
LINE
  8
0
 62
     0
 10
104.018
 20
95.2556
 30
0.0
 11
104.018
 21
109.106
 31
0.0
  0
LINE
  8
0
 62
     0
 10
2.86632
 20
115.634
 30
0.0
 11
2.59485
 21
115.495
 31
0.0
  0
LINE
  8
0
 62
     0
 10
2.59485
 20
115.495
 30
0.0
 11
2.37987
 21
115.28
 31
0.0
  0
LINE
  8
0
 62
     0
 10
2.37987
 20
115.28
 30
0.0
 11
2.24069
 21
115.008
 31
0.0
  0
LINE
  8
0
 62
     0
 10
2.24069
 20
115.008
 30
0.0
 11
2.19384
 21
114.706
 31
0.0
  0
LINE
  8
0
 62
     0
 10
2.19384
 20
114.706
 30
0.0
 11
2.24069
 21
114.405
 31
0.0
  0
LINE
  8
0
 62
     0
 10
2.24069
 20
114.405
 30
0.0
 11
2.37987
 21
114.133
 31
0.0
  0
LINE
  8
0
 62
     0
 10
2.37987
 20
114.133
 30
0.0
 11
2.59485
 21
113.918
 31
0.0
  0
LINE
  8
0
 62
     0
 10
2.59485
 20
113.918
 30
0.0
 11
2.86632
 21
113.779
 31
0.0
  0
LINE
  8
0
 62
     0
 10
2.86632
 20
113.779
 30
0.0
 11
3.16811
 21
113.731
 31
0.0
  0
LINE
  8
0
 62
     0
 10
3.16811
 20
113.731
 30
0.0
 11
3.4699
 21
113.779
 31
0.0
  0
LINE
  8
0
 62
     0
 10
3.4699
 20
113.779
 30
0.0
 11
3.74138
 21
113.918
 31
0.0
  0
LINE
  8
0
 62
     0
 10
3.74138
 20
113.918
 30
0.0
 11
3.95633
 21
114.133
 31
0.0
  0
LINE
  8
0
 62
     0
 10
3.95633
 20
114.133
 30
0.0
 11
4.09554
 21
114.405
 31
0.0
  0
LINE
  8
0
 62
     0
 10
4.09554
 20
114.405
 30
0.0
 11
4.14376
 21
114.706
 31
0.0
  0
LINE
  8
0
 62
     0
 10
4.14376
 20
114.706
 30
0.0
 11
4.09554
 21
115.008
 31
0.0
  0
LINE
  8
0
 62
     0
 10
4.09554
 20
115.008
 30
0.0
 11
3.95633
 21
115.28
 31
0.0
  0
LINE
  8
0
 62
     0
 10
3.95633
 20
115.28
 30
0.0
 11
3.74138
 21
115.495
 31
0.0
  0
LINE
  8
0
 62
     0
 10
3.74138
 20
115.495
 30
0.0
 11
3.4699
 21
115.634
 31
0.0
  0
LINE
  8
0
 62
     0
 10
3.4699
 20
115.634
 30
0.0
 11
3.16811
 21
115.681
 31
0.0
  0
LINE
  8
0
 62
     0
 10
3.16811
 20
115.681
 30
0.0
 11
2.86632
 21
115.634
 31
0.0
  0
LINE
  8
0
 62
     0
 10
73.6505
 20
115.634
 30
0.0
 11
73.3792
 21
115.495
 31
0.0
  0
LINE
  8
0
 62
     0
 10
73.3792
 20
115.495
 30
0.0
 11
73.1629
 21
115.28
 31
0.0
  0
LINE
  8
0
 62
     0
 10
73.1629
 20
115.28
 30
0.0
 11
73.025
 21
115.008
 31
0.0
  0
LINE
  8
0
 62
     0
 10
73.025
 20
115.008
 30
0.0
 11
72.9767
 21
114.706
 31
0.0
  0
LINE
  8
0
 62
     0
 10
72.9767
 20
114.706
 30
0.0
 11
73.025
 21
114.405
 31
0.0
  0
LINE
  8
0
 62
     0
 10
73.025
 20
114.405
 30
0.0
 11
73.1629
 21
114.133
 31
0.0
  0
LINE
  8
0
 62
     0
 10
73.1629
 20
114.133
 30
0.0
 11
73.3792
 21
113.918
 31
0.0
  0
LINE
  8
0
 62
     0
 10
73.3792
 20
113.918
 30
0.0
 11
73.6505
 21
113.779
 31
0.0
  0
LINE
  8
0
 62
     0
 10
73.6505
 20
113.779
 30
0.0
 11
73.9525
 21
113.732
 31
0.0
  0
LINE
  8
0
 62
     0
 10
73.9525
 20
113.732
 30
0.0
 11
74.2541
 21
113.779
 31
0.0
  0
LINE
  8
0
 62
     0
 10
74.2541
 20
113.779
 30
0.0
 11
74.5243
 21
113.918
 31
0.0
  0
LINE
  8
0
 62
     0
 10
74.5243
 20
113.918
 30
0.0
 11
74.7406
 21
114.133
 31
0.0
  0
LINE
  8
0
 62
     0
 10
74.7406
 20
114.133
 30
0.0
 11
74.8785
 21
114.405
 31
0.0
  0
LINE
  8
0
 62
     0
 10
74.8785
 20
114.405
 30
0.0
 11
74.9268
 21
114.706
 31
0.0
  0
LINE
  8
0
 62
     0
 10
74.9268
 20
114.706
 30
0.0
 11
74.8785
 21
115.008
 31
0.0
  0
LINE
  8
0
 62
     0
 10
74.8785
 20
115.008
 30
0.0
 11
74.7406
 21
115.28
 31
0.0
  0
LINE
  8
0
 62
     0
 10
74.7406
 20
115.28
 30
0.0
 11
74.5243
 21
115.495
 31
0.0
  0
LINE
  8
0
 62
     0
 10
74.5243
 20
115.495
 30
0.0
 11
74.2541
 21
115.634
 31
0.0
  0
LINE
  8
0
 62
     0
 10
74.2541
 20
115.634
 30
0.0
 11
73.9525
 21
115.681
 31
0.0
  0
LINE
  8
0
 62
     0
 10
73.9525
 20
115.681
 30
0.0
 11
73.6505
 21
115.634
 31
0.0
  0
LINE
  8
0
 62
     0
 10
144.435
 20
115.634
 30
0.0
 11
144.162
 21
115.495
 31
0.0
  0
LINE
  8
0
 62
     0
 10
144.162
 20
115.495
 30
0.0
 11
143.947
 21
115.28
 31
0.0
  0
LINE
  8
0
 62
     0
 10
143.947
 20
115.28
 30
0.0
 11
143.809
 21
115.008
 31
0.0
  0
LINE
  8
0
 62
     0
 10
143.809
 20
115.008
 30
0.0
 11
143.761
 21
114.706
 31
0.0
  0
LINE
  8
0
 62
     0
 10
143.761
 20
114.706
 30
0.0
 11
143.809
 21
114.405
 31
0.0
  0
LINE
  8
0
 62
     0
 10
143.809
 20
114.405
 30
0.0
 11
143.947
 21
114.133
 31
0.0
  0
LINE
  8
0
 62
     0
 10
143.947
 20
114.133
 30
0.0
 11
144.162
 21
113.918
 31
0.0
  0
LINE
  8
0
 62
     0
 10
144.162
 20
113.918
 30
0.0
 11
144.435
 21
113.779
 31
0.0
  0
LINE
  8
0
 62
     0
 10
144.435
 20
113.779
 30
0.0
 11
144.735
 21
113.732
 31
0.0
  0
LINE
  8
0
 62
     0
 10
144.735
 20
113.732
 30
0.0
 11
145.037
 21
113.779
 31
0.0
  0
LINE
  8
0
 62
     0
 10
145.037
 20
113.779
 30
0.0
 11
145.308
 21
113.918
 31
0.0
  0
LINE
  8
0
 62
     0
 10
145.308
 20
113.918
 30
0.0
 11
145.525
 21
114.133
 31
0.0
  0
LINE
  8
0
 62
     0
 10
145.525
 20
114.133
 30
0.0
 11
145.663
 21
114.405
 31
0.0
  0
LINE
  8
0
 62
     0
 10
145.663
 20
114.405
 30
0.0
 11
145.711
 21
114.706
 31
0.0
  0
LINE
  8
0
 62
     0
 10
145.711
 20
114.706
 30
0.0
 11
145.663
 21
115.008
 31
0.0
  0
LINE
  8
0
 62
     0
 10
145.663
 20
115.008
 30
0.0
 11
145.525
 21
115.28
 31
0.0
  0
LINE
  8
0
 62
     0
 10
145.525
 20
115.28
 30
0.0
 11
145.308
 21
115.495
 31
0.0
  0
LINE
  8
0
 62
     0
 10
145.308
 20
115.495
 30
0.0
 11
145.037
 21
115.634
 31
0.0
  0
LINE
  8
0
 62
     0
 10
145.037
 20
115.634
 30
0.0
 11
144.735
 21
115.681
 31
0.0
  0
LINE
  8
0
 62
     0
 10
144.735
 20
115.681
 30
0.0
 11
144.435
 21
115.634
 31
0.0
  0
ENDSEC
  0
EOF
