<?xml version="1.0" encoding="UTF-8" standalone="no"?>
<!-- Generated by SVGo -->

<svg
   xmlns:dc="http://purl.org/dc/elements/1.1/"
   xmlns:cc="http://creativecommons.org/ns#"
   xmlns:rdf="http://www.w3.org/1999/02/22-rdf-syntax-ns#"
   xmlns:svg="http://www.w3.org/2000/svg"
   xmlns="http://www.w3.org/2000/svg"
   xmlns:sodipodi="http://sodipodi.sourceforge.net/DTD/sodipodi-0.dtd"
   xmlns:inkscape="http://www.inkscape.org/namespaces/inkscape"
   width="155.49504mm"
   height="135.17438mm"
   viewBox="0 0 155.49505 135.17437"
   id="svg2"
   version="1.1"
   inkscape:version="0.91 r13725"
   sodipodi:docname="spok2-switch.svg">
  <metadata
     id="metadata88">
    <rdf:RDF>
      <cc:Work
         rdf:about="">
        <dc:format>image/svg+xml</dc:format>
        <dc:type
           rdf:resource="http://purl.org/dc/dcmitype/StillImage" />
        <dc:title></dc:title>
      </cc:Work>
    </rdf:RDF>
  </metadata>
  <defs
     id="defs86" />
  <sodipodi:namedview
     pagecolor="#ffffff"
     bordercolor="#666666"
     borderopacity="1"
     objecttolerance="10"
     gridtolerance="10"
     guidetolerance="10"
     inkscape:pageopacity="0"
     inkscape:pageshadow="2"
     inkscape:window-width="1920"
     inkscape:window-height="1020"
     id="namedview84"
     showgrid="true"
     inkscape:zoom="1.0431638"
     inkscape:cx="677.60843"
     inkscape:cy="217.93275"
     inkscape:window-x="0"
     inkscape:window-y="31"
     inkscape:window-maximized="1"
     inkscape:current-layer="svg2"
     fit-margin-top="5"
     fit-margin-left="5"
     fit-margin-right="5"
     fit-margin-bottom="5"
     inkscape:document-units="mm">
    <inkscape:grid
       type="xygrid"
       id="grid3416"
       dotted="false"
       originx="-2.3180792"
       originy="0.10291822" />
  </sodipodi:namedview>
  <g
     id="g3422">
    <polygon
       transform="matrix(0.98361965,0,0,1.0617267,0.18124772,-0.20140303)"
       id="polygon4"
       style="fill:none;stroke:#000000;stroke-width:0.2"
       points="152.131,5.585 152.238,5.701 152.335,5.824 152.422,5.955 152.499,6.092 152.565,6.234 152.619,6.381 152.662,6.533 152.692,6.687 152.711,6.843 152.717,7 152.717,120.696 152.711,120.853 152.692,121.009 152.662,121.163 152.619,121.314 152.565,121.462 152.499,121.604 152.422,121.741 152.335,121.872 152.238,121.995 152.131,122.11 152.016,122.217 151.892,122.314 151.762,122.402 151.625,122.478 151.482,122.544 151.335,122.598 151.184,122.641 151.03,122.672 150.874,122.69 150.717,122.696 7,122.696 6.843,122.69 6.687,122.672 6.533,122.641 6.381,122.598 6.234,122.544 6.092,122.478 5.955,122.402 5.824,122.314 5.701,122.217 5.585,122.11 5.479,121.995 5.381,121.872 5.294,121.741 5.217,121.604 5.152,121.462 5.097,121.314 5.055,121.163 5.024,121.009 5.006,120.853 4.999,120.696 5,7 5.006,6.843 5.024,6.687 5.055,6.533 5.097,6.381 5.152,6.234 5.217,6.092 5.294,5.955 5.381,5.824 5.479,5.701 5.585,5.585 5.701,5.479 5.824,5.381 5.955,5.294 6.092,5.217 6.234,5.152 6.381,5.097 6.533,5.055 6.687,5.024 6.843,5.006 7,4.999 150.717,5 150.874,5.006 151.03,5.024 151.184,5.055 151.335,5.097 151.482,5.152 151.625,5.217 151.762,5.294 151.892,5.381 152.016,5.479 " />
    <polygon
       transform="translate(-2.3180792,7.3744665)"
       id="polygon6"
       style="fill:none;stroke:#000000;stroke-width:0.2"
       points="148.853,120.194 149.069,120.41 149.341,120.549 149.642,120.596 149.943,120.549 150.215,120.41 150.431,120.194 150.569,119.923 150.617,119.621 150.569,119.32 150.431,119.048 150.215,118.832 149.943,118.694 149.642,118.646 149.341,118.694 149.069,118.832 148.853,119.048 148.715,119.32 148.667,119.621 148.715,119.923 " />
    <polygon
       transform="translate(-2.3180792,7.3744665)"
       id="polygon8"
       style="fill:none;stroke:#000000;stroke-width:0.2"
       points="78.069,120.194 78.285,120.41 78.557,120.549 78.858,120.596 79.16,120.549 79.431,120.41 79.647,120.194 79.785,119.923 79.833,119.621 79.785,119.32 79.647,119.048 79.431,118.832 79.16,118.694 78.858,118.646 78.557,118.694 78.285,118.832 78.069,119.048 77.931,119.32 77.883,119.621 77.931,119.923 " />
    <polygon
       transform="translate(0.45582672,7.1831627)"
       id="polygon10"
       style="fill:none;stroke:#000000;stroke-width:0.2"
       points="7.501,120.41 7.773,120.549 8.074,120.596 8.376,120.549 8.648,120.41 8.863,120.194 9.002,119.923 9.05,119.621 9.002,119.32 8.863,119.048 8.648,118.832 8.376,118.694 8.074,118.646 7.773,118.694 7.501,118.832 7.286,119.048 7.147,119.32 7.1,119.621 7.147,119.923 7.286,120.194 " />
    <polygon
       transform="translate(-2.3180792,9.374621)"
       id="polygon12"
       style="fill:none;stroke:#000000;stroke-width:0.2"
       points="143.63,99.97 129.99,97.565 127.585,111.204 141.225,113.609 " />
    <polygon
       transform="translate(-2.3180792,16.612466)"
       id="polygon14"
       style="fill:none;stroke:#000000;stroke-width:0.2"
       points="13.675,94.637 13.675,108.487 27.525,108.487 27.525,94.637 " />
    <polygon
       transform="translate(-2.3180792,16.612466)"
       id="polygon16"
       style="fill:none;stroke:#000000;stroke-width:0.2"
       points="32.725,94.637 32.725,108.487 46.575,108.487 46.575,94.637 " />
    <polygon
       transform="translate(-2.3180792,3.3744657)"
       id="polygon18"
       style="fill:none;stroke:#000000;stroke-width:0.2"
       points="51.775,89.875 51.775,103.725 65.625,103.725 65.625,89.875 " />
    <polygon
       transform="translate(-2.3180792,-2.6255345)"
       id="polygon20"
       style="fill:none;stroke:#000000;stroke-width:0.2"
       points="70.825,89.875 70.825,103.725 84.675,103.725 84.675,89.875 " />
    <polygon
       transform="translate(-2.3180792,9.3744657)"
       id="polygon22"
       style="fill:none;stroke:#000000;stroke-width:0.2"
       points="89.875,89.875 89.875,103.725 103.725,103.725 103.725,89.875 " />
    <polygon
       transform="translate(-2.3180792,9.374621)"
       id="polygon24"
       style="fill:none;stroke:#000000;stroke-width:0.2"
       points="122.774,103.725 122.774,89.875 108.925,89.875 108.925,103.725 " />
    <polygon
       transform="translate(-2.3180792,16.612466)"
       id="polygon26"
       style="fill:none;stroke:#000000;stroke-width:0.2"
       points="13.675,75.587 13.675,89.437 27.525,89.437 27.525,75.587 " />
    <polygon
       transform="translate(-2.3180792,16.612466)"
       id="polygon28"
       style="fill:none;stroke:#000000;stroke-width:0.2"
       points="32.725,75.587 32.725,89.437 46.575,89.437 46.575,75.587 " />
    <polygon
       transform="translate(-2.3180792,3.3744657)"
       id="polygon30"
       style="fill:none;stroke:#000000;stroke-width:0.2"
       points="51.775,70.825 51.775,84.675 65.625,84.675 65.625,70.825 " />
    <polygon
       transform="translate(-2.3180792,-2.6255345)"
       id="polygon32"
       style="fill:none;stroke:#000000;stroke-width:0.2"
       points="70.825,70.825 70.825,84.675 84.675,84.675 84.675,70.825 " />
    <polygon
       transform="translate(-2.3180792,9.3744657)"
       id="polygon34"
       style="fill:none;stroke:#000000;stroke-width:0.2"
       points="89.875,70.825 89.875,84.675 103.725,84.675 103.725,70.825 " />
    <polygon
       transform="translate(-2.3180792,9.374621)"
       id="polygon36"
       style="fill:none;stroke:#000000;stroke-width:0.2"
       points="122.774,84.675 122.774,70.825 108.925,70.825 108.925,84.675 " />
    <polygon
       transform="translate(-2.3180792,9.374621)"
       id="polygon38"
       style="fill:none;stroke:#000000;stroke-width:0.2"
       points="141.825,84.675 141.825,70.825 127.975,70.825 127.975,84.675 " />
    <polygon
       transform="translate(-2.3180792,16.612466)"
       id="polygon40"
       style="fill:none;stroke:#000000;stroke-width:0.2"
       points="13.675,56.537 13.675,70.387 27.525,70.387 27.525,56.537 " />
    <polygon
       transform="translate(-2.3180792,16.612466)"
       id="polygon42"
       style="fill:none;stroke:#000000;stroke-width:0.2"
       points="32.725,56.537 32.725,70.387 46.575,70.387 46.575,56.537 " />
    <polygon
       transform="translate(-2.3180792,3.3744657)"
       id="polygon44"
       style="fill:none;stroke:#000000;stroke-width:0.2"
       points="51.775,51.775 51.775,65.625 65.625,65.625 65.625,51.775 " />
    <polygon
       transform="translate(-2.3180792,-2.6255345)"
       id="polygon46"
       style="fill:none;stroke:#000000;stroke-width:0.2"
       points="70.825,51.775 70.825,65.625 84.675,65.625 84.675,51.775 " />
    <polygon
       transform="translate(-2.3180792,9.3744657)"
       id="polygon48"
       style="fill:none;stroke:#000000;stroke-width:0.2"
       points="89.875,51.775 89.875,65.625 103.725,65.625 103.725,51.775 " />
    <polygon
       transform="translate(-2.3180792,9.374621)"
       id="polygon50"
       style="fill:none;stroke:#000000;stroke-width:0.2"
       points="122.774,65.625 122.774,51.775 108.925,51.775 108.925,65.625 " />
    <polygon
       transform="translate(-2.3180792,9.374621)"
       id="polygon52"
       style="fill:none;stroke:#000000;stroke-width:0.2"
       points="141.825,65.625 141.825,51.775 127.975,51.775 127.975,65.625 " />
    <polygon
       transform="translate(-2.3180792,16.612466)"
       id="polygon54"
       style="fill:none;stroke:#000000;stroke-width:0.2"
       points="13.675,37.487 13.675,51.337 27.525,51.337 27.525,37.487 " />
    <polygon
       transform="translate(-2.3180792,16.612466)"
       id="polygon56"
       style="fill:none;stroke:#000000;stroke-width:0.2"
       points="32.725,37.487 32.725,51.337 46.575,51.337 46.575,37.487 " />
    <polygon
       transform="translate(-2.3180792,3.3744657)"
       id="polygon58"
       style="fill:none;stroke:#000000;stroke-width:0.2"
       points="51.775,32.725 51.775,46.575 65.625,46.575 65.625,32.725 " />
    <polygon
       transform="translate(-2.3180792,-2.6255345)"
       id="polygon60"
       style="fill:none;stroke:#000000;stroke-width:0.2"
       points="70.825,32.725 70.825,46.575 84.675,46.575 84.675,32.725 " />
    <polygon
       transform="translate(-2.3180792,9.3744657)"
       id="polygon62"
       style="fill:none;stroke:#000000;stroke-width:0.2"
       points="89.875,32.725 89.875,46.575 103.725,46.575 103.725,32.725 " />
    <polygon
       transform="translate(-2.3180792,9.374621)"
       id="polygon64"
       style="fill:none;stroke:#000000;stroke-width:0.2"
       points="122.774,46.575 122.774,32.725 108.925,32.725 108.925,46.575 " />
    <polygon
       transform="translate(-2.3180792,16.612466)"
       id="polygon66"
       style="fill:none;stroke:#000000;stroke-width:0.2"
       points="13.675,18.437 13.675,32.287 27.525,32.287 27.525,18.437 " />
    <polygon
       transform="translate(-2.3180792,16.612466)"
       id="polygon68"
       style="fill:none;stroke:#000000;stroke-width:0.2"
       points="32.725,18.437 32.725,32.287 46.575,32.287 46.575,18.437 " />
    <polygon
       transform="translate(-2.3180792,3.3744657)"
       id="polygon70"
       style="fill:none;stroke:#000000;stroke-width:0.2"
       points="51.775,13.675 51.775,27.525 65.625,27.525 65.625,13.675 " />
    <polygon
       transform="translate(-2.3180792,-2.6255345)"
       id="polygon72"
       style="fill:none;stroke:#000000;stroke-width:0.2"
       points="70.825,13.675 70.825,27.525 84.675,27.525 84.675,13.675 " />
    <polygon
       transform="translate(-2.3180792,9.3744657)"
       id="polygon74"
       style="fill:none;stroke:#000000;stroke-width:0.2"
       points="89.875,13.675 89.875,27.525 103.725,27.525 103.725,13.675 " />
    <polygon
       transform="translate(-2.3180792,9.374621)"
       id="polygon76"
       style="fill:none;stroke:#000000;stroke-width:0.2"
       points="122.774,27.525 122.774,13.675 108.925,13.675 108.925,27.525 " />
    <polygon
       transform="translate(0.16887092,0.10492047)"
       id="polygon78"
       style="fill:none;stroke:#000000;stroke-width:0.2"
       points="7.773,9.002 8.074,9.05 8.376,9.002 8.648,8.863 8.863,8.648 9.002,8.376 9.05,8.074 9.002,7.773 8.863,7.501 8.648,7.286 8.376,7.147 8.074,7.1 7.773,7.147 7.501,7.286 7.286,7.501 7.147,7.773 7.1,8.074 7.147,8.376 7.286,8.648 7.501,8.863 " />
    <polygon
       transform="translate(-3.944162,0.20057237)"
       id="polygon80"
       style="fill:none;stroke:#000000;stroke-width:0.2"
       points="78.285,8.863 78.557,9.002 78.858,9.049 79.16,9.002 79.431,8.863 79.647,8.648 79.785,8.376 79.833,8.074 79.785,7.773 79.647,7.501 79.431,7.286 79.16,7.147 78.858,7.1 78.557,7.147 78.285,7.286 78.069,7.501 77.931,7.773 77.883,8.074 77.931,8.376 78.069,8.648 " />
    <polygon
       transform="translate(-2.605035,0.48752807)"
       id="polygon82"
       style="fill:none;stroke:#000000;stroke-width:0.2"
       points="149.069,8.863 149.341,9.002 149.642,9.049 149.943,9.002 150.215,8.863 150.431,8.648 150.569,8.376 150.617,8.074 150.569,7.773 150.431,7.501 150.215,7.286 149.943,7.147 149.642,7.1 149.341,7.147 149.069,7.286 148.853,7.501 148.715,7.773 148.667,8.074 148.715,8.376 148.853,8.648 " />
    <text
       transform="matrix(0,-1,1,0,0,0)"
       sodipodi:linespacing="125%"
       id="text3418"
       y="138.88741"
       x="-42.048714"
       style="font-style:normal;font-weight:normal;font-size:11.28889084px;line-height:125%;font-family:sans-serif;letter-spacing:0px;word-spacing:0px;fill:#ff0000;fill-opacity:1;stroke:none;stroke-width:1px;stroke-linecap:butt;stroke-linejoin:miter;stroke-opacity:1"
       xml:space="preserve"><tspan
         y="138.88741"
         x="-42.048714"
         id="tspan3420"
         sodipodi:role="line">spok</tspan></text>
  </g>
</svg>
