  0
SECTION
  2
HEADER
  9
$ACADVER
  1
AC1009
  9
$EXTMIN
 10
0.0
 20
0.0
 30
0.0
  9
$EXTMAX
 10
1000.0
 20
1000.0
 30
0.0
  9
$FILLMODE
 70
 0
  9
$SPLFRAME
 70
 1
  0
ENDSEC
  0
SECTION
  2
TABLES
  0
TABLE
  2
LAYER
 70
1
  0
LAYER
  2
0
 70
     0
 62
     7
  6
CONTINUOUS
  0
ENDTAB
  0
ENDSEC
  0
SECTION
  2
ENTITIES
  0
LINE
  8
0
 62
     0
 10
429.345
 20
112.25
 30
0.0
 11
429.5
 21
112.244
 31
0.0
  0
LINE
  8
0
 62
     0
 10
429.5
 20
112.244
 30
0.0
 11
429.655
 21
112.226
 31
0.0
  0
LINE
  8
0
 62
     0
 10
429.655
 20
112.226
 30
0.0
 11
429.81
 21
112.194
 31
0.0
  0
LINE
  8
0
 62
     0
 10
429.81
 20
112.194
 30
0.0
 11
429.962
 21
112.153
 31
0.0
  0
LINE
  8
0
 62
     0
 10
429.962
 20
112.153
 30
0.0
 11
430.11
 21
112.098
 31
0.0
  0
LINE
  8
0
 62
     0
 10
430.11
 20
112.098
 30
0.0
 11
430.251
 21
112.032
 31
0.0
  0
LINE
  8
0
 62
     0
 10
430.251
 20
112.032
 30
0.0
 11
430.389
 21
111.956
 31
0.0
  0
LINE
  8
0
 62
     0
 10
430.389
 20
111.956
 30
0.0
 11
430.519
 21
111.868
 31
0.0
  0
LINE
  8
0
 62
     0
 10
430.519
 20
111.868
 30
0.0
 11
430.639
 21
111.77
 31
0.0
  0
LINE
  8
0
 62
     0
 10
430.639
 20
111.77
 30
0.0
 11
430.759
 21
111.664
 31
0.0
  0
LINE
  8
0
 62
     0
 10
430.759
 20
111.664
 30
0.0
 11
430.865
 21
111.548
 31
0.0
  0
LINE
  8
0
 62
     0
 10
430.865
 20
111.548
 30
0.0
 11
430.964
 21
111.426
 31
0.0
  0
LINE
  8
0
 62
     0
 10
430.964
 20
111.426
 30
0.0
 11
431.049
 21
111.294
 31
0.0
  0
LINE
  8
0
 62
     0
 10
431.049
 20
111.294
 30
0.0
 11
431.126
 21
111.158
 31
0.0
  0
LINE
  8
0
 62
     0
 10
431.126
 20
111.158
 30
0.0
 11
431.19
 21
111.015
 31
0.0
  0
LINE
  8
0
 62
     0
 10
431.19
 20
111.015
 30
0.0
 11
431.246
 21
110.869
 31
0.0
  0
LINE
  8
0
 62
     0
 10
431.246
 20
110.869
 30
0.0
 11
431.288
 21
110.717
 31
0.0
  0
LINE
  8
0
 62
     0
 10
431.288
 20
110.717
 30
0.0
 11
431.32
 21
110.563
 31
0.0
  0
LINE
  8
0
 62
     0
 10
431.32
 20
110.563
 30
0.0
 11
431.338
 21
110.407
 31
0.0
  0
LINE
  8
0
 62
     0
 10
431.338
 20
110.407
 30
0.0
 11
431.345
 21
110.25
 31
0.0
  0
LINE
  8
0
 62
     0
 10
431.345
 20
110.25
 30
0.0
 11
431.345
 21
2.08773
 31
0.0
  0
LINE
  8
0
 62
     0
 10
431.345
 20
2.08773
 30
0.0
 11
431.338
 21
1.93201
 31
0.0
  0
LINE
  8
0
 62
     0
 10
431.338
 20
1.93201
 30
0.0
 11
431.32
 21
1.77491
 31
0.0
  0
LINE
  8
0
 62
     0
 10
431.32
 20
1.77491
 30
0.0
 11
431.288
 21
1.62057
 31
0.0
  0
LINE
  8
0
 62
     0
 10
431.288
 20
1.62057
 30
0.0
 11
431.246
 21
1.46899
 31
0.0
  0
LINE
  8
0
 62
     0
 10
431.246
 20
1.46899
 30
0.0
 11
431.19
 21
1.32292
 31
0.0
  0
LINE
  8
0
 62
     0
 10
431.19
 20
1.32292
 30
0.0
 11
431.126
 21
1.1796
 31
0.0
  0
LINE
  8
0
 62
     0
 10
431.126
 20
1.1796
 30
0.0
 11
431.049
 21
1.0418
 31
0.0
  0
LINE
  8
0
 62
     0
 10
431.049
 20
1.0418
 30
0.0
 11
430.964
 21
0.910883
 31
0.0
  0
LINE
  8
0
 62
     0
 10
430.964
 20
0.910883
 30
0.0
 11
430.865
 21
0.78824
 31
0.0
  0
LINE
  8
0
 62
     0
 10
430.865
 20
0.78824
 30
0.0
 11
430.759
 21
0.673862
 31
0.0
  0
LINE
  8
0
 62
     0
 10
430.759
 20
0.673862
 30
0.0
 11
430.639
 21
0.566374
 31
0.0
  0
LINE
  8
0
 62
     0
 10
430.639
 20
0.566374
 30
0.0
 11
430.519
 21
0.469911
 31
0.0
  0
LINE
  8
0
 62
     0
 10
430.519
 20
0.469911
 30
0.0
 11
430.389
 21
0.383096
 31
0.0
  0
LINE
  8
0
 62
     0
 10
430.389
 20
0.383096
 30
0.0
 11
430.251
 21
0.305925
 31
0.0
  0
LINE
  8
0
 62
     0
 10
430.251
 20
0.305925
 30
0.0
 11
430.11
 21
0.241157
 31
0.0
  0
LINE
  8
0
 62
     0
 10
430.11
 20
0.241157
 30
0.0
 11
429.962
 21
0.186035
 31
0.0
  0
LINE
  8
0
 62
     0
 10
429.962
 20
0.186035
 30
0.0
 11
429.81
 21
0.141938
 31
0.0
  0
LINE
  8
0
 62
     0
 10
429.81
 20
0.141938
 30
0.0
 11
429.655
 21
0.112999
 31
0.0
  0
LINE
  8
0
 62
     0
 10
429.655
 20
0.112999
 30
0.0
 11
429.5
 21
0.0937066
 31
0.0
  0
LINE
  8
0
 62
     0
 10
429.5
 20
0.0937066
 30
0.0
 11
429.345
 21
0.0868165
 31
0.0
  0
LINE
  8
0
 62
     0
 10
429.345
 20
0.0868165
 30
0.0
 11
2.09324
 21
0.0868165
 31
0.0
  0
LINE
  8
0
 62
     0
 10
2.09324
 20
0.0868165
 30
0.0
 11
1.93614
 21
0.0937066
 31
0.0
  0
LINE
  8
0
 62
     0
 10
1.93614
 20
0.0937066
 30
0.0
 11
1.78043
 21
0.112999
 31
0.0
  0
LINE
  8
0
 62
     0
 10
1.78043
 20
0.112999
 30
0.0
 11
1.62609
 21
0.141938
 31
0.0
  0
LINE
  8
0
 62
     0
 10
1.62609
 20
0.141938
 30
0.0
 11
1.4745
 21
0.186035
 31
0.0
  0
LINE
  8
0
 62
     0
 10
1.4745
 20
0.186035
 30
0.0
 11
1.32843
 21
0.241157
 31
0.0
  0
LINE
  8
0
 62
     0
 10
1.32843
 20
0.241157
 30
0.0
 11
1.18511
 21
0.305925
 31
0.0
  0
LINE
  8
0
 62
     0
 10
1.18511
 20
0.305925
 30
0.0
 11
1.04869
 21
0.383096
 31
0.0
  0
LINE
  8
0
 62
     0
 10
1.04869
 20
0.383096
 30
0.0
 11
0.917773
 21
0.469911
 31
0.0
  0
LINE
  8
0
 62
     0
 10
0.917773
 20
0.469911
 30
0.0
 11
0.795129
 21
0.566374
 31
0.0
  0
LINE
  8
0
 62
     0
 10
0.795129
 20
0.566374
 30
0.0
 11
0.679372
 21
0.673862
 31
0.0
  0
LINE
  8
0
 62
     0
 10
0.679372
 20
0.673862
 30
0.0
 11
0.573264
 21
0.78824
 31
0.0
  0
LINE
  8
0
 62
     0
 10
0.573264
 20
0.78824
 30
0.0
 11
0.475424
 21
0.910883
 31
0.0
  0
LINE
  8
0
 62
     0
 10
0.475424
 20
0.910883
 30
0.0
 11
0.38723
 21
1.0418
 31
0.0
  0
LINE
  8
0
 62
     0
 10
0.38723
 20
1.0418
 30
0.0
 11
0.311437
 21
1.1796
 31
0.0
  0
LINE
  8
0
 62
     0
 10
0.311437
 20
1.1796
 30
0.0
 11
0.245291
 21
1.32292
 31
0.0
  0
LINE
  8
0
 62
     0
 10
0.245291
 20
1.32292
 30
0.0
 11
0.190169
 21
1.46899
 31
0.0
  0
LINE
  8
0
 62
     0
 10
0.190169
 20
1.46899
 30
0.0
 11
0.148828
 21
1.62057
 31
0.0
  0
LINE
  8
0
 62
     0
 10
0.148828
 20
1.62057
 30
0.0
 11
0.117133
 21
1.77491
 31
0.0
  0
LINE
  8
0
 62
     0
 10
0.117133
 20
1.77491
 30
0.0
 11
0.0992188
 21
1.93201
 31
0.0
  0
LINE
  8
0
 62
     0
 10
0.0992188
 20
1.93201
 30
0.0
 11
0.0923286
 21
2.08773
 31
0.0
  0
LINE
  8
0
 62
     0
 10
0.0923286
 20
2.08773
 30
0.0
 11
0.0937066
 21
110.25
 31
0.0
  0
LINE
  8
0
 62
     0
 10
0.0937066
 20
110.25
 30
0.0
 11
0.0992188
 21
110.407
 31
0.0
  0
LINE
  8
0
 62
     0
 10
0.0992188
 20
110.407
 30
0.0
 11
0.117133
 21
110.563
 31
0.0
  0
LINE
  8
0
 62
     0
 10
0.117133
 20
110.563
 30
0.0
 11
0.148828
 21
110.717
 31
0.0
  0
LINE
  8
0
 62
     0
 10
0.148828
 20
110.717
 30
0.0
 11
0.190169
 21
110.869
 31
0.0
  0
LINE
  8
0
 62
     0
 10
0.190169
 20
110.869
 30
0.0
 11
0.245291
 21
111.015
 31
0.0
  0
LINE
  8
0
 62
     0
 10
0.245291
 20
111.015
 30
0.0
 11
0.311437
 21
111.158
 31
0.0
  0
LINE
  8
0
 62
     0
 10
0.311437
 20
111.158
 30
0.0
 11
0.38723
 21
111.294
 31
0.0
  0
LINE
  8
0
 62
     0
 10
0.38723
 20
111.294
 30
0.0
 11
0.475424
 21
111.426
 31
0.0
  0
LINE
  8
0
 62
     0
 10
0.475424
 20
111.426
 30
0.0
 11
0.573264
 21
111.548
 31
0.0
  0
LINE
  8
0
 62
     0
 10
0.573264
 20
111.548
 30
0.0
 11
0.679372
 21
111.664
 31
0.0
  0
LINE
  8
0
 62
     0
 10
0.679372
 20
111.664
 30
0.0
 11
0.795129
 21
111.77
 31
0.0
  0
LINE
  8
0
 62
     0
 10
0.795129
 20
111.77
 30
0.0
 11
0.917773
 21
111.868
 31
0.0
  0
LINE
  8
0
 62
     0
 10
0.917773
 20
111.868
 30
0.0
 11
1.04869
 21
111.956
 31
0.0
  0
LINE
  8
0
 62
     0
 10
1.04869
 20
111.956
 30
0.0
 11
1.18511
 21
112.032
 31
0.0
  0
LINE
  8
0
 62
     0
 10
1.18511
 20
112.032
 30
0.0
 11
1.32843
 21
112.098
 31
0.0
  0
LINE
  8
0
 62
     0
 10
1.32843
 20
112.098
 30
0.0
 11
1.4745
 21
112.153
 31
0.0
  0
LINE
  8
0
 62
     0
 10
1.4745
 20
112.153
 30
0.0
 11
1.62609
 21
112.194
 31
0.0
  0
LINE
  8
0
 62
     0
 10
1.62609
 20
112.194
 30
0.0
 11
1.78043
 21
112.226
 31
0.0
  0
LINE
  8
0
 62
     0
 10
1.78043
 20
112.226
 30
0.0
 11
1.93614
 21
112.244
 31
0.0
  0
LINE
  8
0
 62
     0
 10
1.93614
 20
112.244
 30
0.0
 11
2.09324
 21
112.251
 31
0.0
  0
LINE
  8
0
 62
     0
 10
2.09324
 20
112.251
 30
0.0
 11
429.345
 21
112.25
 31
0.0
  0
LINE
  8
0
 62
     0
 10
427.965
 20
4.09003
 30
0.0
 11
427.694
 21
3.95083
 31
0.0
  0
LINE
  8
0
 62
     0
 10
427.694
 20
3.95083
 30
0.0
 11
427.478
 21
3.73585
 31
0.0
  0
LINE
  8
0
 62
     0
 10
427.478
 20
3.73585
 30
0.0
 11
427.341
 21
3.46301
 31
0.0
  0
LINE
  8
0
 62
     0
 10
427.341
 20
3.46301
 30
0.0
 11
427.291
 21
3.1626
 31
0.0
  0
LINE
  8
0
 62
     0
 10
427.291
 20
3.1626
 30
0.0
 11
427.341
 21
2.86081
 31
0.0
  0
LINE
  8
0
 62
     0
 10
427.341
 20
2.86081
 30
0.0
 11
427.478
 21
2.58933
 31
0.0
  0
LINE
  8
0
 62
     0
 10
427.478
 20
2.58933
 30
0.0
 11
427.694
 21
2.37298
 31
0.0
  0
LINE
  8
0
 62
     0
 10
427.694
 20
2.37298
 30
0.0
 11
427.965
 21
2.23518
 31
0.0
  0
LINE
  8
0
 62
     0
 10
427.965
 20
2.23518
 30
0.0
 11
428.269
 21
2.18695
 31
0.0
  0
LINE
  8
0
 62
     0
 10
428.269
 20
2.18695
 30
0.0
 11
428.569
 21
2.23518
 31
0.0
  0
LINE
  8
0
 62
     0
 10
428.569
 20
2.23518
 30
0.0
 11
428.84
 21
2.37298
 31
0.0
  0
LINE
  8
0
 62
     0
 10
428.84
 20
2.37298
 30
0.0
 11
429.055
 21
2.58933
 31
0.0
  0
LINE
  8
0
 62
     0
 10
429.055
 20
2.58933
 30
0.0
 11
429.196
 21
2.86081
 31
0.0
  0
LINE
  8
0
 62
     0
 10
429.196
 20
2.86081
 30
0.0
 11
429.242
 21
3.1626
 31
0.0
  0
LINE
  8
0
 62
     0
 10
429.242
 20
3.1626
 30
0.0
 11
429.196
 21
3.46301
 31
0.0
  0
LINE
  8
0
 62
     0
 10
429.196
 20
3.46301
 30
0.0
 11
429.055
 21
3.73585
 31
0.0
  0
LINE
  8
0
 62
     0
 10
429.055
 20
3.73585
 30
0.0
 11
428.84
 21
3.95083
 31
0.0
  0
LINE
  8
0
 62
     0
 10
428.84
 20
3.95083
 30
0.0
 11
428.569
 21
4.09003
 31
0.0
  0
LINE
  8
0
 62
     0
 10
428.569
 20
4.09003
 30
0.0
 11
428.269
 21
4.13688
 31
0.0
  0
LINE
  8
0
 62
     0
 10
428.269
 20
4.13688
 30
0.0
 11
427.965
 21
4.09003
 31
0.0
  0
LINE
  8
0
 62
     0
 10
342.947
 20
4.09003
 30
0.0
 11
342.675
 21
3.95083
 31
0.0
  0
LINE
  8
0
 62
     0
 10
342.675
 20
3.95083
 30
0.0
 11
342.46
 21
3.73585
 31
0.0
  0
LINE
  8
0
 62
     0
 10
342.46
 20
3.73585
 30
0.0
 11
342.321
 21
3.46301
 31
0.0
  0
LINE
  8
0
 62
     0
 10
342.321
 20
3.46301
 30
0.0
 11
342.273
 21
3.1626
 31
0.0
  0
LINE
  8
0
 62
     0
 10
342.273
 20
3.1626
 30
0.0
 11
342.321
 21
2.86081
 31
0.0
  0
LINE
  8
0
 62
     0
 10
342.321
 20
2.86081
 30
0.0
 11
342.46
 21
2.58933
 31
0.0
  0
LINE
  8
0
 62
     0
 10
342.46
 20
2.58933
 30
0.0
 11
342.675
 21
2.37298
 31
0.0
  0
LINE
  8
0
 62
     0
 10
342.675
 20
2.37298
 30
0.0
 11
342.947
 21
2.23518
 31
0.0
  0
LINE
  8
0
 62
     0
 10
342.947
 20
2.23518
 30
0.0
 11
343.249
 21
2.18695
 31
0.0
  0
LINE
  8
0
 62
     0
 10
343.249
 20
2.18695
 30
0.0
 11
343.551
 21
2.23518
 31
0.0
  0
LINE
  8
0
 62
     0
 10
343.551
 20
2.23518
 30
0.0
 11
343.822
 21
2.37298
 31
0.0
  0
LINE
  8
0
 62
     0
 10
343.822
 20
2.37298
 30
0.0
 11
344.037
 21
2.58933
 31
0.0
  0
LINE
  8
0
 62
     0
 10
344.037
 20
2.58933
 30
0.0
 11
344.176
 21
2.86081
 31
0.0
  0
LINE
  8
0
 62
     0
 10
344.176
 20
2.86081
 30
0.0
 11
344.224
 21
3.1626
 31
0.0
  0
LINE
  8
0
 62
     0
 10
344.224
 20
3.1626
 30
0.0
 11
344.176
 21
3.46301
 31
0.0
  0
LINE
  8
0
 62
     0
 10
344.176
 20
3.46301
 30
0.0
 11
344.037
 21
3.73585
 31
0.0
  0
LINE
  8
0
 62
     0
 10
344.037
 20
3.73585
 30
0.0
 11
343.822
 21
3.95083
 31
0.0
  0
LINE
  8
0
 62
     0
 10
343.822
 20
3.95083
 30
0.0
 11
343.551
 21
4.09003
 31
0.0
  0
LINE
  8
0
 62
     0
 10
343.551
 20
4.09003
 30
0.0
 11
343.249
 21
4.13688
 31
0.0
  0
LINE
  8
0
 62
     0
 10
343.249
 20
4.13688
 30
0.0
 11
342.947
 21
4.09003
 31
0.0
  0
LINE
  8
0
 62
     0
 10
257.927
 20
4.09003
 30
0.0
 11
257.654
 21
3.95083
 31
0.0
  0
LINE
  8
0
 62
     0
 10
257.654
 20
3.95083
 30
0.0
 11
257.44
 21
3.73585
 31
0.0
  0
LINE
  8
0
 62
     0
 10
257.44
 20
3.73585
 30
0.0
 11
257.3
 21
3.46301
 31
0.0
  0
LINE
  8
0
 62
     0
 10
257.3
 20
3.46301
 30
0.0
 11
257.252
 21
3.1626
 31
0.0
  0
LINE
  8
0
 62
     0
 10
257.252
 20
3.1626
 30
0.0
 11
257.3
 21
2.86081
 31
0.0
  0
LINE
  8
0
 62
     0
 10
257.3
 20
2.86081
 30
0.0
 11
257.44
 21
2.58933
 31
0.0
  0
LINE
  8
0
 62
     0
 10
257.44
 20
2.58933
 30
0.0
 11
257.654
 21
2.37298
 31
0.0
  0
LINE
  8
0
 62
     0
 10
257.654
 20
2.37298
 30
0.0
 11
257.927
 21
2.23518
 31
0.0
  0
LINE
  8
0
 62
     0
 10
257.927
 20
2.23518
 30
0.0
 11
258.229
 21
2.18695
 31
0.0
  0
LINE
  8
0
 62
     0
 10
258.229
 20
2.18695
 30
0.0
 11
258.53
 21
2.23518
 31
0.0
  0
LINE
  8
0
 62
     0
 10
258.53
 20
2.23518
 30
0.0
 11
258.801
 21
2.37298
 31
0.0
  0
LINE
  8
0
 62
     0
 10
258.801
 20
2.37298
 30
0.0
 11
259.018
 21
2.58933
 31
0.0
  0
LINE
  8
0
 62
     0
 10
259.018
 20
2.58933
 30
0.0
 11
259.155
 21
2.86081
 31
0.0
  0
LINE
  8
0
 62
     0
 10
259.155
 20
2.86081
 30
0.0
 11
259.203
 21
3.1626
 31
0.0
  0
LINE
  8
0
 62
     0
 10
259.203
 20
3.1626
 30
0.0
 11
259.155
 21
3.46301
 31
0.0
  0
LINE
  8
0
 62
     0
 10
259.155
 20
3.46301
 30
0.0
 11
259.018
 21
3.73585
 31
0.0
  0
LINE
  8
0
 62
     0
 10
259.018
 20
3.73585
 30
0.0
 11
258.801
 21
3.95083
 31
0.0
  0
LINE
  8
0
 62
     0
 10
258.801
 20
3.95083
 30
0.0
 11
258.53
 21
4.09003
 31
0.0
  0
LINE
  8
0
 62
     0
 10
258.53
 20
4.09003
 30
0.0
 11
258.229
 21
4.13688
 31
0.0
  0
LINE
  8
0
 62
     0
 10
258.229
 20
4.13688
 30
0.0
 11
257.927
 21
4.09003
 31
0.0
  0
LINE
  8
0
 62
     0
 10
172.907
 20
4.09003
 30
0.0
 11
172.635
 21
3.95083
 31
0.0
  0
LINE
  8
0
 62
     0
 10
172.635
 20
3.95083
 30
0.0
 11
172.42
 21
3.73585
 31
0.0
  0
LINE
  8
0
 62
     0
 10
172.42
 20
3.73585
 30
0.0
 11
172.281
 21
3.46301
 31
0.0
  0
LINE
  8
0
 62
     0
 10
172.281
 20
3.46301
 30
0.0
 11
172.234
 21
3.1626
 31
0.0
  0
LINE
  8
0
 62
     0
 10
172.234
 20
3.1626
 30
0.0
 11
172.281
 21
2.86081
 31
0.0
  0
LINE
  8
0
 62
     0
 10
172.281
 20
2.86081
 30
0.0
 11
172.42
 21
2.58933
 31
0.0
  0
LINE
  8
0
 62
     0
 10
172.42
 20
2.58933
 30
0.0
 11
172.635
 21
2.37298
 31
0.0
  0
LINE
  8
0
 62
     0
 10
172.635
 20
2.37298
 30
0.0
 11
172.907
 21
2.23518
 31
0.0
  0
LINE
  8
0
 62
     0
 10
172.907
 20
2.23518
 30
0.0
 11
173.208
 21
2.18695
 31
0.0
  0
LINE
  8
0
 62
     0
 10
173.208
 20
2.18695
 30
0.0
 11
173.51
 21
2.23518
 31
0.0
  0
LINE
  8
0
 62
     0
 10
173.51
 20
2.23518
 30
0.0
 11
173.782
 21
2.37298
 31
0.0
  0
LINE
  8
0
 62
     0
 10
173.782
 20
2.37298
 30
0.0
 11
173.997
 21
2.58933
 31
0.0
  0
LINE
  8
0
 62
     0
 10
173.997
 20
2.58933
 30
0.0
 11
174.136
 21
2.86081
 31
0.0
  0
LINE
  8
0
 62
     0
 10
174.136
 20
2.86081
 30
0.0
 11
174.183
 21
3.1626
 31
0.0
  0
LINE
  8
0
 62
     0
 10
174.183
 20
3.1626
 30
0.0
 11
174.136
 21
3.46301
 31
0.0
  0
LINE
  8
0
 62
     0
 10
174.136
 20
3.46301
 30
0.0
 11
173.997
 21
3.73585
 31
0.0
  0
LINE
  8
0
 62
     0
 10
173.997
 20
3.73585
 30
0.0
 11
173.782
 21
3.95083
 31
0.0
  0
LINE
  8
0
 62
     0
 10
173.782
 20
3.95083
 30
0.0
 11
173.51
 21
4.09003
 31
0.0
  0
LINE
  8
0
 62
     0
 10
173.51
 20
4.09003
 30
0.0
 11
173.208
 21
4.13688
 31
0.0
  0
LINE
  8
0
 62
     0
 10
173.208
 20
4.13688
 30
0.0
 11
172.907
 21
4.09003
 31
0.0
  0
LINE
  8
0
 62
     0
 10
87.8872
 20
4.09003
 30
0.0
 11
87.6141
 21
3.95083
 31
0.0
  0
LINE
  8
0
 62
     0
 10
87.6141
 20
3.95083
 30
0.0
 11
87.3993
 21
3.73585
 31
0.0
  0
LINE
  8
0
 62
     0
 10
87.3993
 20
3.73585
 30
0.0
 11
87.2603
 21
3.46301
 31
0.0
  0
LINE
  8
0
 62
     0
 10
87.2603
 20
3.46301
 30
0.0
 11
87.2134
 21
3.1626
 31
0.0
  0
LINE
  8
0
 62
     0
 10
87.2134
 20
3.1626
 30
0.0
 11
87.2603
 21
2.86081
 31
0.0
  0
LINE
  8
0
 62
     0
 10
87.2603
 20
2.86081
 30
0.0
 11
87.3993
 21
2.58933
 31
0.0
  0
LINE
  8
0
 62
     0
 10
87.3993
 20
2.58933
 30
0.0
 11
87.6141
 21
2.37298
 31
0.0
  0
LINE
  8
0
 62
     0
 10
87.6141
 20
2.37298
 30
0.0
 11
87.8872
 21
2.23518
 31
0.0
  0
LINE
  8
0
 62
     0
 10
87.8872
 20
2.23518
 30
0.0
 11
88.1874
 21
2.18695
 31
0.0
  0
LINE
  8
0
 62
     0
 10
88.1874
 20
2.18695
 30
0.0
 11
88.4894
 21
2.23518
 31
0.0
  0
LINE
  8
0
 62
     0
 10
88.4894
 20
2.23518
 30
0.0
 11
88.7621
 21
2.37298
 31
0.0
  0
LINE
  8
0
 62
     0
 10
88.7621
 20
2.37298
 30
0.0
 11
88.9773
 21
2.58933
 31
0.0
  0
LINE
  8
0
 62
     0
 10
88.9773
 20
2.58933
 30
0.0
 11
89.1163
 21
2.86081
 31
0.0
  0
LINE
  8
0
 62
     0
 10
89.1163
 20
2.86081
 30
0.0
 11
89.1632
 21
3.1626
 31
0.0
  0
LINE
  8
0
 62
     0
 10
89.1632
 20
3.1626
 30
0.0
 11
89.1163
 21
3.46301
 31
0.0
  0
LINE
  8
0
 62
     0
 10
89.1163
 20
3.46301
 30
0.0
 11
88.9773
 21
3.73585
 31
0.0
  0
LINE
  8
0
 62
     0
 10
88.9773
 20
3.73585
 30
0.0
 11
88.7621
 21
3.95083
 31
0.0
  0
LINE
  8
0
 62
     0
 10
88.7621
 20
3.95083
 30
0.0
 11
88.4894
 21
4.09003
 31
0.0
  0
LINE
  8
0
 62
     0
 10
88.4894
 20
4.09003
 30
0.0
 11
88.1874
 21
4.13688
 31
0.0
  0
LINE
  8
0
 62
     0
 10
88.1874
 20
4.13688
 30
0.0
 11
87.8872
 21
4.09003
 31
0.0
  0
LINE
  8
0
 62
     0
 10
2.86632
 20
4.09003
 30
0.0
 11
2.59485
 21
3.95083
 31
0.0
  0
LINE
  8
0
 62
     0
 10
2.59485
 20
3.95083
 30
0.0
 11
2.37987
 21
3.73585
 31
0.0
  0
LINE
  8
0
 62
     0
 10
2.37987
 20
3.73585
 30
0.0
 11
2.24069
 21
3.46301
 31
0.0
  0
LINE
  8
0
 62
     0
 10
2.24069
 20
3.46301
 30
0.0
 11
2.19246
 21
3.1626
 31
0.0
  0
LINE
  8
0
 62
     0
 10
2.19246
 20
3.1626
 30
0.0
 11
2.24069
 21
2.86081
 31
0.0
  0
LINE
  8
0
 62
     0
 10
2.24069
 20
2.86081
 30
0.0
 11
2.37987
 21
2.58933
 31
0.0
  0
LINE
  8
0
 62
     0
 10
2.37987
 20
2.58933
 30
0.0
 11
2.59485
 21
2.37298
 31
0.0
  0
LINE
  8
0
 62
     0
 10
2.59485
 20
2.37298
 30
0.0
 11
2.86632
 21
2.23518
 31
0.0
  0
LINE
  8
0
 62
     0
 10
2.86632
 20
2.23518
 30
0.0
 11
3.16811
 21
2.18695
 31
0.0
  0
LINE
  8
0
 62
     0
 10
3.16811
 20
2.18695
 30
0.0
 11
3.4699
 21
2.23518
 31
0.0
  0
LINE
  8
0
 62
     0
 10
3.4699
 20
2.23518
 30
0.0
 11
3.74138
 21
2.37298
 31
0.0
  0
LINE
  8
0
 62
     0
 10
3.74138
 20
2.37298
 30
0.0
 11
3.95633
 21
2.58933
 31
0.0
  0
LINE
  8
0
 62
     0
 10
3.95633
 20
2.58933
 30
0.0
 11
4.09554
 21
2.86081
 31
0.0
  0
LINE
  8
0
 62
     0
 10
4.09554
 20
2.86081
 30
0.0
 11
4.14239
 21
3.1626
 31
0.0
  0
LINE
  8
0
 62
     0
 10
4.14239
 20
3.1626
 30
0.0
 11
4.09554
 21
3.46301
 31
0.0
  0
LINE
  8
0
 62
     0
 10
4.09554
 20
3.46301
 30
0.0
 11
3.95633
 21
3.73585
 31
0.0
  0
LINE
  8
0
 62
     0
 10
3.95633
 20
3.73585
 30
0.0
 11
3.74138
 21
3.95083
 31
0.0
  0
LINE
  8
0
 62
     0
 10
3.74138
 20
3.95083
 30
0.0
 11
3.4699
 21
4.09003
 31
0.0
  0
LINE
  8
0
 62
     0
 10
3.4699
 20
4.09003
 30
0.0
 11
3.16811
 21
4.13688
 31
0.0
  0
LINE
  8
0
 62
     0
 10
3.16811
 20
4.13688
 30
0.0
 11
2.86632
 21
4.09003
 31
0.0
  0
LINE
  8
0
 62
     0
 10
8.76847
 20
22.6136
 30
0.0
 11
22.6191
 21
22.6136
 31
0.0
  0
LINE
  8
0
 62
     0
 10
22.6191
 20
22.6136
 30
0.0
 11
22.6191
 21
8.76293
 31
0.0
  0
LINE
  8
0
 62
     0
 10
22.6191
 20
8.76293
 30
0.0
 11
8.76847
 21
8.76293
 31
0.0
  0
LINE
  8
0
 62
     0
 10
8.76847
 20
8.76293
 30
0.0
 11
8.76847
 21
22.6136
 31
0.0
  0
LINE
  8
0
 62
     0
 10
27.8185
 20
22.6136
 30
0.0
 11
41.6691
 21
22.6136
 31
0.0
  0
LINE
  8
0
 62
     0
 10
41.6691
 20
22.6136
 30
0.0
 11
41.6691
 21
8.76293
 31
0.0
  0
LINE
  8
0
 62
     0
 10
41.6691
 20
8.76293
 30
0.0
 11
27.8185
 21
8.76293
 31
0.0
  0
LINE
  8
0
 62
     0
 10
27.8185
 20
8.76293
 30
0.0
 11
27.8185
 21
22.6136
 31
0.0
  0
LINE
  8
0
 62
     0
 10
123.068
 20
22.6136
 30
0.0
 11
136.919
 21
22.6136
 31
0.0
  0
LINE
  8
0
 62
     0
 10
136.919
 20
22.6136
 30
0.0
 11
136.919
 21
8.76293
 31
0.0
  0
LINE
  8
0
 62
     0
 10
136.919
 20
8.76293
 30
0.0
 11
123.068
 21
8.76293
 31
0.0
  0
LINE
  8
0
 62
     0
 10
123.068
 20
8.76293
 30
0.0
 11
123.068
 21
22.6136
 31
0.0
  0
LINE
  8
0
 62
     0
 10
294.518
 20
22.6136
 30
0.0
 11
308.369
 21
22.6136
 31
0.0
  0
LINE
  8
0
 62
     0
 10
308.369
 20
22.6136
 30
0.0
 11
308.369
 21
8.76293
 31
0.0
  0
LINE
  8
0
 62
     0
 10
308.369
 20
8.76293
 30
0.0
 11
294.518
 21
8.76293
 31
0.0
  0
LINE
  8
0
 62
     0
 10
294.518
 20
8.76293
 30
0.0
 11
294.518
 21
22.6136
 31
0.0
  0
LINE
  8
0
 62
     0
 10
389.77
 20
22.6136
 30
0.0
 11
403.62
 21
22.6136
 31
0.0
  0
LINE
  8
0
 62
     0
 10
403.62
 20
22.6136
 30
0.0
 11
403.62
 21
8.76293
 31
0.0
  0
LINE
  8
0
 62
     0
 10
403.62
 20
8.76293
 30
0.0
 11
389.77
 21
8.76293
 31
0.0
  0
LINE
  8
0
 62
     0
 10
389.77
 20
8.76293
 30
0.0
 11
389.77
 21
22.6136
 31
0.0
  0
LINE
  8
0
 62
     0
 10
408.82
 20
22.6136
 30
0.0
 11
422.67
 21
22.6136
 31
0.0
  0
LINE
  8
0
 62
     0
 10
422.67
 20
22.6136
 30
0.0
 11
422.67
 21
8.76293
 31
0.0
  0
LINE
  8
0
 62
     0
 10
422.67
 20
8.76293
 30
0.0
 11
408.82
 21
8.76293
 31
0.0
  0
LINE
  8
0
 62
     0
 10
408.82
 20
8.76293
 30
0.0
 11
408.82
 21
22.6136
 31
0.0
  0
LINE
  8
0
 62
     0
 10
46.8683
 20
27.3761
 30
0.0
 11
60.7191
 21
27.3761
 31
0.0
  0
LINE
  8
0
 62
     0
 10
60.7191
 20
27.3761
 30
0.0
 11
60.7191
 21
13.5241
 31
0.0
  0
LINE
  8
0
 62
     0
 10
60.7191
 20
13.5241
 30
0.0
 11
46.8683
 21
13.5241
 31
0.0
  0
LINE
  8
0
 62
     0
 10
46.8683
 20
13.5241
 30
0.0
 11
46.8683
 21
27.3761
 31
0.0
  0
LINE
  8
0
 62
     0
 10
65.9183
 20
27.3761
 30
0.0
 11
79.7691
 21
27.3761
 31
0.0
  0
LINE
  8
0
 62
     0
 10
79.7691
 20
27.3761
 30
0.0
 11
79.7691
 21
13.5241
 31
0.0
  0
LINE
  8
0
 62
     0
 10
79.7691
 20
13.5241
 30
0.0
 11
65.9183
 21
13.5241
 31
0.0
  0
LINE
  8
0
 62
     0
 10
65.9183
 20
13.5241
 30
0.0
 11
65.9183
 21
27.3761
 31
0.0
  0
LINE
  8
0
 62
     0
 10
84.9683
 20
27.3761
 30
0.0
 11
98.8191
 21
27.3761
 31
0.0
  0
LINE
  8
0
 62
     0
 10
98.8191
 20
27.3761
 30
0.0
 11
98.8191
 21
13.5241
 31
0.0
  0
LINE
  8
0
 62
     0
 10
98.8191
 20
13.5241
 30
0.0
 11
84.9683
 21
13.5241
 31
0.0
  0
LINE
  8
0
 62
     0
 10
84.9683
 20
13.5241
 30
0.0
 11
84.9683
 21
27.3761
 31
0.0
  0
LINE
  8
0
 62
     0
 10
104.018
 20
27.3761
 30
0.0
 11
117.868
 21
27.3761
 31
0.0
  0
LINE
  8
0
 62
     0
 10
117.868
 20
27.3761
 30
0.0
 11
117.868
 21
13.5241
 31
0.0
  0
LINE
  8
0
 62
     0
 10
117.868
 20
13.5241
 30
0.0
 11
104.018
 21
13.5241
 31
0.0
  0
LINE
  8
0
 62
     0
 10
104.018
 20
13.5241
 30
0.0
 11
104.018
 21
27.3761
 31
0.0
  0
LINE
  8
0
 62
     0
 10
313.567
 20
27.3761
 30
0.0
 11
327.419
 21
27.3761
 31
0.0
  0
LINE
  8
0
 62
     0
 10
327.419
 20
27.3761
 30
0.0
 11
327.419
 21
13.5241
 31
0.0
  0
LINE
  8
0
 62
     0
 10
327.419
 20
13.5241
 30
0.0
 11
313.567
 21
13.5241
 31
0.0
  0
LINE
  8
0
 62
     0
 10
313.567
 20
13.5241
 30
0.0
 11
313.567
 21
27.3761
 31
0.0
  0
LINE
  8
0
 62
     0
 10
332.618
 20
27.3761
 30
0.0
 11
346.469
 21
27.3761
 31
0.0
  0
LINE
  8
0
 62
     0
 10
346.469
 20
27.3761
 30
0.0
 11
346.469
 21
13.5241
 31
0.0
  0
LINE
  8
0
 62
     0
 10
346.469
 20
13.5241
 30
0.0
 11
332.618
 21
13.5241
 31
0.0
  0
LINE
  8
0
 62
     0
 10
332.618
 20
13.5241
 30
0.0
 11
332.618
 21
27.3761
 31
0.0
  0
LINE
  8
0
 62
     0
 10
351.668
 20
27.3761
 30
0.0
 11
365.52
 21
27.3761
 31
0.0
  0
LINE
  8
0
 62
     0
 10
365.52
 20
27.3761
 30
0.0
 11
365.52
 21
13.5241
 31
0.0
  0
LINE
  8
0
 62
     0
 10
365.52
 20
13.5241
 30
0.0
 11
351.668
 21
13.5241
 31
0.0
  0
LINE
  8
0
 62
     0
 10
351.668
 20
13.5241
 30
0.0
 11
351.668
 21
27.3761
 31
0.0
  0
LINE
  8
0
 62
     0
 10
370.72
 20
27.3761
 30
0.0
 11
384.57
 21
27.3761
 31
0.0
  0
LINE
  8
0
 62
     0
 10
384.57
 20
27.3761
 30
0.0
 11
384.57
 21
13.5241
 31
0.0
  0
LINE
  8
0
 62
     0
 10
384.57
 20
13.5241
 30
0.0
 11
370.72
 21
13.5241
 31
0.0
  0
LINE
  8
0
 62
     0
 10
370.72
 20
13.5241
 30
0.0
 11
370.72
 21
27.3761
 31
0.0
  0
LINE
  8
0
 62
     0
 10
8.76847
 20
41.6638
 30
0.0
 11
22.6191
 21
41.6638
 31
0.0
  0
LINE
  8
0
 62
     0
 10
22.6191
 20
41.6638
 30
0.0
 11
22.6191
 21
27.8129
 31
0.0
  0
LINE
  8
0
 62
     0
 10
22.6191
 20
27.8129
 30
0.0
 11
8.76847
 21
27.8129
 31
0.0
  0
LINE
  8
0
 62
     0
 10
8.76847
 20
27.8129
 30
0.0
 11
8.76847
 21
41.6638
 31
0.0
  0
LINE
  8
0
 62
     0
 10
27.8185
 20
41.6638
 30
0.0
 11
41.6691
 21
41.6638
 31
0.0
  0
LINE
  8
0
 62
     0
 10
41.6691
 20
41.6638
 30
0.0
 11
41.6691
 21
27.8129
 31
0.0
  0
LINE
  8
0
 62
     0
 10
41.6691
 20
27.8129
 30
0.0
 11
27.8185
 21
27.8129
 31
0.0
  0
LINE
  8
0
 62
     0
 10
27.8185
 20
27.8129
 30
0.0
 11
27.8185
 21
41.6638
 31
0.0
  0
LINE
  8
0
 62
     0
 10
389.77
 20
41.6638
 30
0.0
 11
403.62
 21
41.6638
 31
0.0
  0
LINE
  8
0
 62
     0
 10
403.62
 20
41.6638
 30
0.0
 11
403.62
 21
27.8129
 31
0.0
  0
LINE
  8
0
 62
     0
 10
403.62
 20
27.8129
 30
0.0
 11
389.77
 21
27.8129
 31
0.0
  0
LINE
  8
0
 62
     0
 10
389.77
 20
27.8129
 30
0.0
 11
389.77
 21
41.6638
 31
0.0
  0
LINE
  8
0
 62
     0
 10
408.82
 20
41.6638
 30
0.0
 11
422.67
 21
41.6638
 31
0.0
  0
LINE
  8
0
 62
     0
 10
422.67
 20
41.6638
 30
0.0
 11
422.67
 21
27.8129
 31
0.0
  0
LINE
  8
0
 62
     0
 10
422.67
 20
27.8129
 30
0.0
 11
408.82
 21
27.8129
 31
0.0
  0
LINE
  8
0
 62
     0
 10
408.82
 20
27.8129
 30
0.0
 11
408.82
 21
41.6638
 31
0.0
  0
LINE
  8
0
 62
     0
 10
46.8683
 20
46.4263
 30
0.0
 11
60.7191
 21
46.4263
 31
0.0
  0
LINE
  8
0
 62
     0
 10
60.7191
 20
46.4263
 30
0.0
 11
60.7191
 21
32.5741
 31
0.0
  0
LINE
  8
0
 62
     0
 10
60.7191
 20
32.5741
 30
0.0
 11
46.8683
 21
32.5741
 31
0.0
  0
LINE
  8
0
 62
     0
 10
46.8683
 20
32.5741
 30
0.0
 11
46.8683
 21
46.4263
 31
0.0
  0
LINE
  8
0
 62
     0
 10
65.9183
 20
46.4263
 30
0.0
 11
79.7691
 21
46.4263
 31
0.0
  0
LINE
  8
0
 62
     0
 10
79.7691
 20
46.4263
 30
0.0
 11
79.7691
 21
32.5741
 31
0.0
  0
LINE
  8
0
 62
     0
 10
79.7691
 20
32.5741
 30
0.0
 11
65.9183
 21
32.5741
 31
0.0
  0
LINE
  8
0
 62
     0
 10
65.9183
 20
32.5741
 30
0.0
 11
65.9183
 21
46.4263
 31
0.0
  0
LINE
  8
0
 62
     0
 10
84.9683
 20
46.4263
 30
0.0
 11
98.8191
 21
46.4263
 31
0.0
  0
LINE
  8
0
 62
     0
 10
98.8191
 20
46.4263
 30
0.0
 11
98.8191
 21
32.5741
 31
0.0
  0
LINE
  8
0
 62
     0
 10
98.8191
 20
32.5741
 30
0.0
 11
84.9683
 21
32.5741
 31
0.0
  0
LINE
  8
0
 62
     0
 10
84.9683
 20
32.5741
 30
0.0
 11
84.9683
 21
46.4263
 31
0.0
  0
LINE
  8
0
 62
     0
 10
104.018
 20
46.4263
 30
0.0
 11
117.868
 21
46.4263
 31
0.0
  0
LINE
  8
0
 62
     0
 10
117.868
 20
46.4263
 30
0.0
 11
117.868
 21
32.5741
 31
0.0
  0
LINE
  8
0
 62
     0
 10
117.868
 20
32.5741
 30
0.0
 11
104.018
 21
32.5741
 31
0.0
  0
LINE
  8
0
 62
     0
 10
104.018
 20
32.5741
 30
0.0
 11
104.018
 21
46.4263
 31
0.0
  0
LINE
  8
0
 62
     0
 10
123.068
 20
46.4263
 30
0.0
 11
136.919
 21
46.4263
 31
0.0
  0
LINE
  8
0
 62
     0
 10
136.919
 20
46.4263
 30
0.0
 11
136.919
 21
32.5741
 31
0.0
  0
LINE
  8
0
 62
     0
 10
136.919
 20
32.5741
 30
0.0
 11
123.068
 21
32.5741
 31
0.0
  0
LINE
  8
0
 62
     0
 10
123.068
 20
32.5741
 30
0.0
 11
123.068
 21
46.4263
 31
0.0
  0
LINE
  8
0
 62
     0
 10
294.518
 20
46.4263
 30
0.0
 11
308.369
 21
46.4263
 31
0.0
  0
LINE
  8
0
 62
     0
 10
308.369
 20
46.4263
 30
0.0
 11
308.369
 21
32.5741
 31
0.0
  0
LINE
  8
0
 62
     0
 10
308.369
 20
32.5741
 30
0.0
 11
294.518
 21
32.5741
 31
0.0
  0
LINE
  8
0
 62
     0
 10
294.518
 20
32.5741
 30
0.0
 11
294.518
 21
46.4263
 31
0.0
  0
LINE
  8
0
 62
     0
 10
313.568
 20
46.4263
 30
0.0
 11
327.419
 21
46.4263
 31
0.0
  0
LINE
  8
0
 62
     0
 10
327.419
 20
46.4263
 30
0.0
 11
327.419
 21
32.5741
 31
0.0
  0
LINE
  8
0
 62
     0
 10
327.419
 20
32.5741
 30
0.0
 11
313.568
 21
32.5741
 31
0.0
  0
LINE
  8
0
 62
     0
 10
313.568
 20
32.5741
 30
0.0
 11
313.568
 21
46.4263
 31
0.0
  0
LINE
  8
0
 62
     0
 10
332.618
 20
46.4263
 30
0.0
 11
346.469
 21
46.4263
 31
0.0
  0
LINE
  8
0
 62
     0
 10
346.469
 20
46.4263
 30
0.0
 11
346.469
 21
32.5741
 31
0.0
  0
LINE
  8
0
 62
     0
 10
346.469
 20
32.5741
 30
0.0
 11
332.618
 21
32.5741
 31
0.0
  0
LINE
  8
0
 62
     0
 10
332.618
 20
32.5741
 30
0.0
 11
332.618
 21
46.4263
 31
0.0
  0
LINE
  8
0
 62
     0
 10
351.668
 20
46.4263
 30
0.0
 11
365.52
 21
46.4263
 31
0.0
  0
LINE
  8
0
 62
     0
 10
365.52
 20
46.4263
 30
0.0
 11
365.52
 21
32.5741
 31
0.0
  0
LINE
  8
0
 62
     0
 10
365.52
 20
32.5741
 30
0.0
 11
351.668
 21
32.5741
 31
0.0
  0
LINE
  8
0
 62
     0
 10
351.668
 20
32.5741
 30
0.0
 11
351.668
 21
46.4263
 31
0.0
  0
LINE
  8
0
 62
     0
 10
370.72
 20
46.4263
 30
0.0
 11
384.57
 21
46.4263
 31
0.0
  0
LINE
  8
0
 62
     0
 10
384.57
 20
46.4263
 30
0.0
 11
384.57
 21
32.5741
 31
0.0
  0
LINE
  8
0
 62
     0
 10
384.57
 20
32.5741
 30
0.0
 11
370.72
 21
32.5741
 31
0.0
  0
LINE
  8
0
 62
     0
 10
370.72
 20
32.5741
 30
0.0
 11
370.72
 21
46.4263
 31
0.0
  0
LINE
  8
0
 62
     0
 10
8.76847
 20
60.7138
 30
0.0
 11
22.6191
 21
60.7138
 31
0.0
  0
LINE
  8
0
 62
     0
 10
22.6191
 20
60.7138
 30
0.0
 11
22.6191
 21
46.863
 31
0.0
  0
LINE
  8
0
 62
     0
 10
22.6191
 20
46.863
 30
0.0
 11
8.76847
 21
46.863
 31
0.0
  0
LINE
  8
0
 62
     0
 10
8.76847
 20
46.863
 30
0.0
 11
8.76847
 21
60.7138
 31
0.0
  0
LINE
  8
0
 62
     0
 10
27.8185
 20
60.7138
 30
0.0
 11
41.6691
 21
60.7138
 31
0.0
  0
LINE
  8
0
 62
     0
 10
41.6691
 20
60.7138
 30
0.0
 11
41.6691
 21
46.863
 31
0.0
  0
LINE
  8
0
 62
     0
 10
41.6691
 20
46.863
 30
0.0
 11
27.8185
 21
46.863
 31
0.0
  0
LINE
  8
0
 62
     0
 10
27.8185
 20
46.863
 30
0.0
 11
27.8185
 21
60.7138
 31
0.0
  0
LINE
  8
0
 62
     0
 10
389.77
 20
60.7138
 30
0.0
 11
403.62
 21
60.7138
 31
0.0
  0
LINE
  8
0
 62
     0
 10
403.62
 20
60.7138
 30
0.0
 11
403.62
 21
46.863
 31
0.0
  0
LINE
  8
0
 62
     0
 10
403.62
 20
46.863
 30
0.0
 11
389.77
 21
46.863
 31
0.0
  0
LINE
  8
0
 62
     0
 10
389.77
 20
46.863
 30
0.0
 11
389.77
 21
60.7138
 31
0.0
  0
LINE
  8
0
 62
     0
 10
408.82
 20
60.7138
 30
0.0
 11
422.67
 21
60.7138
 31
0.0
  0
LINE
  8
0
 62
     0
 10
422.67
 20
60.7138
 30
0.0
 11
422.67
 21
46.863
 31
0.0
  0
LINE
  8
0
 62
     0
 10
422.67
 20
46.863
 30
0.0
 11
408.82
 21
46.863
 31
0.0
  0
LINE
  8
0
 62
     0
 10
408.82
 20
46.863
 30
0.0
 11
408.82
 21
60.7138
 31
0.0
  0
LINE
  8
0
 62
     0
 10
46.8683
 20
65.4763
 30
0.0
 11
60.7191
 21
65.4763
 31
0.0
  0
LINE
  8
0
 62
     0
 10
60.7191
 20
65.4763
 30
0.0
 11
60.7191
 21
51.6241
 31
0.0
  0
LINE
  8
0
 62
     0
 10
60.7191
 20
51.6241
 30
0.0
 11
46.8683
 21
51.6241
 31
0.0
  0
LINE
  8
0
 62
     0
 10
46.8683
 20
51.6241
 30
0.0
 11
46.8683
 21
65.4763
 31
0.0
  0
LINE
  8
0
 62
     0
 10
65.9183
 20
65.4763
 30
0.0
 11
79.7691
 21
65.4763
 31
0.0
  0
LINE
  8
0
 62
     0
 10
79.7691
 20
65.4763
 30
0.0
 11
79.7691
 21
51.6241
 31
0.0
  0
LINE
  8
0
 62
     0
 10
79.7691
 20
51.6241
 30
0.0
 11
65.9183
 21
51.6241
 31
0.0
  0
LINE
  8
0
 62
     0
 10
65.9183
 20
51.6241
 30
0.0
 11
65.9183
 21
65.4763
 31
0.0
  0
LINE
  8
0
 62
     0
 10
84.9683
 20
65.4763
 30
0.0
 11
98.8191
 21
65.4763
 31
0.0
  0
LINE
  8
0
 62
     0
 10
98.8191
 20
65.4763
 30
0.0
 11
98.8191
 21
51.6241
 31
0.0
  0
LINE
  8
0
 62
     0
 10
98.8191
 20
51.6241
 30
0.0
 11
84.9683
 21
51.6241
 31
0.0
  0
LINE
  8
0
 62
     0
 10
84.9683
 20
51.6241
 30
0.0
 11
84.9683
 21
65.4763
 31
0.0
  0
LINE
  8
0
 62
     0
 10
104.018
 20
65.4763
 30
0.0
 11
117.868
 21
65.4763
 31
0.0
  0
LINE
  8
0
 62
     0
 10
117.868
 20
65.4763
 30
0.0
 11
117.868
 21
51.6241
 31
0.0
  0
LINE
  8
0
 62
     0
 10
117.868
 20
51.6241
 30
0.0
 11
104.018
 21
51.6241
 31
0.0
  0
LINE
  8
0
 62
     0
 10
104.018
 20
51.6241
 30
0.0
 11
104.018
 21
65.4763
 31
0.0
  0
LINE
  8
0
 62
     0
 10
123.068
 20
65.4763
 30
0.0
 11
136.919
 21
65.4763
 31
0.0
  0
LINE
  8
0
 62
     0
 10
136.919
 20
65.4763
 30
0.0
 11
136.919
 21
51.6241
 31
0.0
  0
LINE
  8
0
 62
     0
 10
136.919
 20
51.6241
 30
0.0
 11
123.068
 21
51.6241
 31
0.0
  0
LINE
  8
0
 62
     0
 10
123.068
 20
51.6241
 30
0.0
 11
123.068
 21
65.4763
 31
0.0
  0
LINE
  8
0
 62
     0
 10
294.518
 20
65.4763
 30
0.0
 11
308.369
 21
65.4763
 31
0.0
  0
LINE
  8
0
 62
     0
 10
308.369
 20
65.4763
 30
0.0
 11
308.369
 21
51.6241
 31
0.0
  0
LINE
  8
0
 62
     0
 10
308.369
 20
51.6241
 30
0.0
 11
294.518
 21
51.6241
 31
0.0
  0
LINE
  8
0
 62
     0
 10
294.518
 20
51.6241
 30
0.0
 11
294.518
 21
65.4763
 31
0.0
  0
LINE
  8
0
 62
     0
 10
313.568
 20
65.4763
 30
0.0
 11
327.419
 21
65.4763
 31
0.0
  0
LINE
  8
0
 62
     0
 10
327.419
 20
65.4763
 30
0.0
 11
327.419
 21
51.6241
 31
0.0
  0
LINE
  8
0
 62
     0
 10
327.419
 20
51.6241
 30
0.0
 11
313.568
 21
51.6241
 31
0.0
  0
LINE
  8
0
 62
     0
 10
313.568
 20
51.6241
 30
0.0
 11
313.568
 21
65.4763
 31
0.0
  0
LINE
  8
0
 62
     0
 10
332.618
 20
65.4763
 30
0.0
 11
346.469
 21
65.4763
 31
0.0
  0
LINE
  8
0
 62
     0
 10
346.469
 20
65.4763
 30
0.0
 11
346.469
 21
51.6241
 31
0.0
  0
LINE
  8
0
 62
     0
 10
346.469
 20
51.6241
 30
0.0
 11
332.618
 21
51.6241
 31
0.0
  0
LINE
  8
0
 62
     0
 10
332.618
 20
51.6241
 30
0.0
 11
332.618
 21
65.4763
 31
0.0
  0
LINE
  8
0
 62
     0
 10
351.668
 20
65.4763
 30
0.0
 11
365.52
 21
65.4763
 31
0.0
  0
LINE
  8
0
 62
     0
 10
365.52
 20
65.4763
 30
0.0
 11
365.52
 21
51.6241
 31
0.0
  0
LINE
  8
0
 62
     0
 10
365.52
 20
51.6241
 30
0.0
 11
351.668
 21
51.6241
 31
0.0
  0
LINE
  8
0
 62
     0
 10
351.668
 20
51.6241
 30
0.0
 11
351.668
 21
65.4763
 31
0.0
  0
LINE
  8
0
 62
     0
 10
370.72
 20
65.4763
 30
0.0
 11
384.57
 21
65.4763
 31
0.0
  0
LINE
  8
0
 62
     0
 10
384.57
 20
65.4763
 30
0.0
 11
384.57
 21
51.6241
 31
0.0
  0
LINE
  8
0
 62
     0
 10
384.57
 20
51.6241
 30
0.0
 11
370.72
 21
51.6241
 31
0.0
  0
LINE
  8
0
 62
     0
 10
370.72
 20
51.6241
 30
0.0
 11
370.72
 21
65.4763
 31
0.0
  0
LINE
  8
0
 62
     0
 10
8.76847
 20
79.7638
 30
0.0
 11
22.6191
 21
79.7638
 31
0.0
  0
LINE
  8
0
 62
     0
 10
22.6191
 20
79.7638
 30
0.0
 11
22.6191
 21
65.913
 31
0.0
  0
LINE
  8
0
 62
     0
 10
22.6191
 20
65.913
 30
0.0
 11
8.76847
 21
65.913
 31
0.0
  0
LINE
  8
0
 62
     0
 10
8.76847
 20
65.913
 30
0.0
 11
8.76847
 21
79.7638
 31
0.0
  0
LINE
  8
0
 62
     0
 10
27.8185
 20
79.7638
 30
0.0
 11
41.6691
 21
79.7638
 31
0.0
  0
LINE
  8
0
 62
     0
 10
41.6691
 20
79.7638
 30
0.0
 11
41.6691
 21
65.913
 31
0.0
  0
LINE
  8
0
 62
     0
 10
41.6691
 20
65.913
 30
0.0
 11
27.8185
 21
65.913
 31
0.0
  0
LINE
  8
0
 62
     0
 10
27.8185
 20
65.913
 30
0.0
 11
27.8185
 21
79.7638
 31
0.0
  0
LINE
  8
0
 62
     0
 10
389.77
 20
79.7638
 30
0.0
 11
403.62
 21
79.7638
 31
0.0
  0
LINE
  8
0
 62
     0
 10
403.62
 20
79.7638
 30
0.0
 11
403.62
 21
65.913
 31
0.0
  0
LINE
  8
0
 62
     0
 10
403.62
 20
65.913
 30
0.0
 11
389.77
 21
65.913
 31
0.0
  0
LINE
  8
0
 62
     0
 10
389.77
 20
65.913
 30
0.0
 11
389.77
 21
79.7638
 31
0.0
  0
LINE
  8
0
 62
     0
 10
408.82
 20
79.7638
 30
0.0
 11
422.67
 21
79.7638
 31
0.0
  0
LINE
  8
0
 62
     0
 10
422.67
 20
79.7638
 30
0.0
 11
422.67
 21
65.913
 31
0.0
  0
LINE
  8
0
 62
     0
 10
422.67
 20
65.913
 30
0.0
 11
408.82
 21
65.913
 31
0.0
  0
LINE
  8
0
 62
     0
 10
408.82
 20
65.913
 30
0.0
 11
408.82
 21
79.7638
 31
0.0
  0
LINE
  8
0
 62
     0
 10
46.8683
 20
84.5263
 30
0.0
 11
60.7191
 21
84.5263
 31
0.0
  0
LINE
  8
0
 62
     0
 10
60.7191
 20
84.5263
 30
0.0
 11
60.7191
 21
70.6741
 31
0.0
  0
LINE
  8
0
 62
     0
 10
60.7191
 20
70.6741
 30
0.0
 11
46.8683
 21
70.6741
 31
0.0
  0
LINE
  8
0
 62
     0
 10
46.8683
 20
70.6741
 30
0.0
 11
46.8683
 21
84.5263
 31
0.0
  0
LINE
  8
0
 62
     0
 10
65.9183
 20
84.5263
 30
0.0
 11
79.7691
 21
84.5263
 31
0.0
  0
LINE
  8
0
 62
     0
 10
79.7691
 20
84.5263
 30
0.0
 11
79.7691
 21
70.6741
 31
0.0
  0
LINE
  8
0
 62
     0
 10
79.7691
 20
70.6741
 30
0.0
 11
65.9183
 21
70.6741
 31
0.0
  0
LINE
  8
0
 62
     0
 10
65.9183
 20
70.6741
 30
0.0
 11
65.9183
 21
84.5263
 31
0.0
  0
LINE
  8
0
 62
     0
 10
84.9683
 20
84.5263
 30
0.0
 11
98.8191
 21
84.5263
 31
0.0
  0
LINE
  8
0
 62
     0
 10
98.8191
 20
84.5263
 30
0.0
 11
98.8191
 21
70.6741
 31
0.0
  0
LINE
  8
0
 62
     0
 10
98.8191
 20
70.6741
 30
0.0
 11
84.9683
 21
70.6741
 31
0.0
  0
LINE
  8
0
 62
     0
 10
84.9683
 20
70.6741
 30
0.0
 11
84.9683
 21
84.5263
 31
0.0
  0
LINE
  8
0
 62
     0
 10
104.018
 20
84.5263
 30
0.0
 11
117.868
 21
84.5263
 31
0.0
  0
LINE
  8
0
 62
     0
 10
117.868
 20
84.5263
 30
0.0
 11
117.868
 21
70.6741
 31
0.0
  0
LINE
  8
0
 62
     0
 10
117.868
 20
70.6741
 30
0.0
 11
104.018
 21
70.6741
 31
0.0
  0
LINE
  8
0
 62
     0
 10
104.018
 20
70.6741
 30
0.0
 11
104.018
 21
84.5263
 31
0.0
  0
LINE
  8
0
 62
     0
 10
313.567
 20
84.5263
 30
0.0
 11
327.419
 21
84.5263
 31
0.0
  0
LINE
  8
0
 62
     0
 10
327.419
 20
84.5263
 30
0.0
 11
327.419
 21
70.6741
 31
0.0
  0
LINE
  8
0
 62
     0
 10
327.419
 20
70.6741
 30
0.0
 11
313.567
 21
70.6741
 31
0.0
  0
LINE
  8
0
 62
     0
 10
313.567
 20
70.6741
 30
0.0
 11
313.567
 21
84.5263
 31
0.0
  0
LINE
  8
0
 62
     0
 10
332.618
 20
84.5263
 30
0.0
 11
346.469
 21
84.5263
 31
0.0
  0
LINE
  8
0
 62
     0
 10
346.469
 20
84.5263
 30
0.0
 11
346.469
 21
70.6741
 31
0.0
  0
LINE
  8
0
 62
     0
 10
346.469
 20
70.6741
 30
0.0
 11
332.618
 21
70.6741
 31
0.0
  0
LINE
  8
0
 62
     0
 10
332.618
 20
70.6741
 30
0.0
 11
332.618
 21
84.5263
 31
0.0
  0
LINE
  8
0
 62
     0
 10
351.668
 20
84.5263
 30
0.0
 11
365.52
 21
84.5263
 31
0.0
  0
LINE
  8
0
 62
     0
 10
365.52
 20
84.5263
 30
0.0
 11
365.52
 21
70.6741
 31
0.0
  0
LINE
  8
0
 62
     0
 10
365.52
 20
70.6741
 30
0.0
 11
351.668
 21
70.6741
 31
0.0
  0
LINE
  8
0
 62
     0
 10
351.668
 20
70.6741
 30
0.0
 11
351.668
 21
84.5263
 31
0.0
  0
LINE
  8
0
 62
     0
 10
370.72
 20
84.5263
 30
0.0
 11
384.57
 21
84.5263
 31
0.0
  0
LINE
  8
0
 62
     0
 10
384.57
 20
84.5263
 30
0.0
 11
384.57
 21
70.6741
 31
0.0
  0
LINE
  8
0
 62
     0
 10
384.57
 20
70.6741
 30
0.0
 11
370.72
 21
70.6741
 31
0.0
  0
LINE
  8
0
 62
     0
 10
370.72
 20
70.6741
 30
0.0
 11
370.72
 21
84.5263
 31
0.0
  0
LINE
  8
0
 62
     0
 10
8.76847
 20
98.8138
 30
0.0
 11
22.6191
 21
98.8138
 31
0.0
  0
LINE
  8
0
 62
     0
 10
22.6191
 20
98.8138
 30
0.0
 11
22.6191
 21
84.963
 31
0.0
  0
LINE
  8
0
 62
     0
 10
22.6191
 20
84.963
 30
0.0
 11
8.76847
 21
84.963
 31
0.0
  0
LINE
  8
0
 62
     0
 10
8.76847
 20
84.963
 30
0.0
 11
8.76847
 21
98.8138
 31
0.0
  0
LINE
  8
0
 62
     0
 10
27.8185
 20
98.8138
 30
0.0
 11
41.6691
 21
98.8138
 31
0.0
  0
LINE
  8
0
 62
     0
 10
41.6691
 20
98.8138
 30
0.0
 11
41.6691
 21
84.963
 31
0.0
  0
LINE
  8
0
 62
     0
 10
41.6691
 20
84.963
 30
0.0
 11
27.8185
 21
84.963
 31
0.0
  0
LINE
  8
0
 62
     0
 10
27.8185
 20
84.963
 30
0.0
 11
27.8185
 21
98.8138
 31
0.0
  0
LINE
  8
0
 62
     0
 10
389.77
 20
98.8138
 30
0.0
 11
403.62
 21
98.8138
 31
0.0
  0
LINE
  8
0
 62
     0
 10
403.62
 20
98.8138
 30
0.0
 11
403.62
 21
84.963
 31
0.0
  0
LINE
  8
0
 62
     0
 10
403.62
 20
84.963
 30
0.0
 11
389.77
 21
84.963
 31
0.0
  0
LINE
  8
0
 62
     0
 10
389.77
 20
84.963
 30
0.0
 11
389.77
 21
98.8138
 31
0.0
  0
LINE
  8
0
 62
     0
 10
408.82
 20
98.8138
 30
0.0
 11
422.67
 21
98.8138
 31
0.0
  0
LINE
  8
0
 62
     0
 10
422.67
 20
98.8138
 30
0.0
 11
422.67
 21
84.963
 31
0.0
  0
LINE
  8
0
 62
     0
 10
422.67
 20
84.963
 30
0.0
 11
408.82
 21
84.963
 31
0.0
  0
LINE
  8
0
 62
     0
 10
408.82
 20
84.963
 30
0.0
 11
408.82
 21
98.8138
 31
0.0
  0
LINE
  8
0
 62
     0
 10
46.8683
 20
103.576
 30
0.0
 11
60.7191
 21
103.576
 31
0.0
  0
LINE
  8
0
 62
     0
 10
60.7191
 20
103.576
 30
0.0
 11
60.7191
 21
89.7241
 31
0.0
  0
LINE
  8
0
 62
     0
 10
60.7191
 20
89.7241
 30
0.0
 11
46.8683
 21
89.7241
 31
0.0
  0
LINE
  8
0
 62
     0
 10
46.8683
 20
89.7241
 30
0.0
 11
46.8683
 21
103.576
 31
0.0
  0
LINE
  8
0
 62
     0
 10
65.9183
 20
103.576
 30
0.0
 11
79.7691
 21
103.576
 31
0.0
  0
LINE
  8
0
 62
     0
 10
79.7691
 20
103.576
 30
0.0
 11
79.7691
 21
89.7241
 31
0.0
  0
LINE
  8
0
 62
     0
 10
79.7691
 20
89.7241
 30
0.0
 11
65.9183
 21
89.7241
 31
0.0
  0
LINE
  8
0
 62
     0
 10
65.9183
 20
89.7241
 30
0.0
 11
65.9183
 21
103.576
 31
0.0
  0
LINE
  8
0
 62
     0
 10
84.9683
 20
103.576
 30
0.0
 11
98.8191
 21
103.576
 31
0.0
  0
LINE
  8
0
 62
     0
 10
98.8191
 20
103.576
 30
0.0
 11
98.8191
 21
89.7241
 31
0.0
  0
LINE
  8
0
 62
     0
 10
98.8191
 20
89.7241
 30
0.0
 11
84.9683
 21
89.7241
 31
0.0
  0
LINE
  8
0
 62
     0
 10
84.9683
 20
89.7241
 30
0.0
 11
84.9683
 21
103.576
 31
0.0
  0
LINE
  8
0
 62
     0
 10
104.018
 20
103.576
 30
0.0
 11
117.868
 21
103.576
 31
0.0
  0
LINE
  8
0
 62
     0
 10
117.868
 20
103.576
 30
0.0
 11
117.868
 21
89.7241
 31
0.0
  0
LINE
  8
0
 62
     0
 10
117.868
 20
89.7241
 30
0.0
 11
104.018
 21
89.7241
 31
0.0
  0
LINE
  8
0
 62
     0
 10
104.018
 20
89.7241
 30
0.0
 11
104.018
 21
103.576
 31
0.0
  0
LINE
  8
0
 62
     0
 10
313.567
 20
103.576
 30
0.0
 11
327.419
 21
103.576
 31
0.0
  0
LINE
  8
0
 62
     0
 10
327.419
 20
103.576
 30
0.0
 11
327.419
 21
89.7241
 31
0.0
  0
LINE
  8
0
 62
     0
 10
327.419
 20
89.7241
 30
0.0
 11
313.567
 21
89.7241
 31
0.0
  0
LINE
  8
0
 62
     0
 10
313.567
 20
89.7241
 30
0.0
 11
313.567
 21
103.576
 31
0.0
  0
LINE
  8
0
 62
     0
 10
332.618
 20
103.576
 30
0.0
 11
346.469
 21
103.576
 31
0.0
  0
LINE
  8
0
 62
     0
 10
346.469
 20
103.576
 30
0.0
 11
346.469
 21
89.7241
 31
0.0
  0
LINE
  8
0
 62
     0
 10
346.469
 20
89.7241
 30
0.0
 11
332.618
 21
89.7241
 31
0.0
  0
LINE
  8
0
 62
     0
 10
332.618
 20
89.7241
 30
0.0
 11
332.618
 21
103.576
 31
0.0
  0
LINE
  8
0
 62
     0
 10
351.668
 20
103.576
 30
0.0
 11
365.52
 21
103.576
 31
0.0
  0
LINE
  8
0
 62
     0
 10
365.52
 20
103.576
 30
0.0
 11
365.52
 21
89.7241
 31
0.0
  0
LINE
  8
0
 62
     0
 10
365.52
 20
89.7241
 30
0.0
 11
351.668
 21
89.7241
 31
0.0
  0
LINE
  8
0
 62
     0
 10
351.668
 20
89.7241
 30
0.0
 11
351.668
 21
103.576
 31
0.0
  0
LINE
  8
0
 62
     0
 10
370.72
 20
103.576
 30
0.0
 11
384.57
 21
103.576
 31
0.0
  0
LINE
  8
0
 62
     0
 10
384.57
 20
103.576
 30
0.0
 11
384.57
 21
89.7241
 31
0.0
  0
LINE
  8
0
 62
     0
 10
384.57
 20
89.7241
 30
0.0
 11
370.72
 21
89.7241
 31
0.0
  0
LINE
  8
0
 62
     0
 10
370.72
 20
89.7241
 30
0.0
 11
370.72
 21
103.576
 31
0.0
  0
LINE
  8
0
 62
     0
 10
2.86632
 20
110.103
 30
0.0
 11
2.59485
 21
109.963
 31
0.0
  0
LINE
  8
0
 62
     0
 10
2.59485
 20
109.963
 30
0.0
 11
2.37987
 21
109.75
 31
0.0
  0
LINE
  8
0
 62
     0
 10
2.37987
 20
109.75
 30
0.0
 11
2.24069
 21
109.477
 31
0.0
  0
LINE
  8
0
 62
     0
 10
2.24069
 20
109.477
 30
0.0
 11
2.19246
 21
109.177
 31
0.0
  0
LINE
  8
0
 62
     0
 10
2.19246
 20
109.177
 30
0.0
 11
2.24069
 21
108.873
 31
0.0
  0
LINE
  8
0
 62
     0
 10
2.24069
 20
108.873
 30
0.0
 11
2.37987
 21
108.603
 31
0.0
  0
LINE
  8
0
 62
     0
 10
2.37987
 20
108.603
 30
0.0
 11
2.59485
 21
108.387
 31
0.0
  0
LINE
  8
0
 62
     0
 10
2.59485
 20
108.387
 30
0.0
 11
2.86632
 21
108.248
 31
0.0
  0
LINE
  8
0
 62
     0
 10
2.86632
 20
108.248
 30
0.0
 11
3.16811
 21
108.199
 31
0.0
  0
LINE
  8
0
 62
     0
 10
3.16811
 20
108.199
 30
0.0
 11
3.4699
 21
108.248
 31
0.0
  0
LINE
  8
0
 62
     0
 10
3.4699
 20
108.248
 30
0.0
 11
3.74138
 21
108.387
 31
0.0
  0
LINE
  8
0
 62
     0
 10
3.74138
 20
108.387
 30
0.0
 11
3.95633
 21
108.603
 31
0.0
  0
LINE
  8
0
 62
     0
 10
3.95633
 20
108.603
 30
0.0
 11
4.09554
 21
108.873
 31
0.0
  0
LINE
  8
0
 62
     0
 10
4.09554
 20
108.873
 30
0.0
 11
4.14239
 21
109.177
 31
0.0
  0
LINE
  8
0
 62
     0
 10
4.14239
 20
109.177
 30
0.0
 11
4.09554
 21
109.477
 31
0.0
  0
LINE
  8
0
 62
     0
 10
4.09554
 20
109.477
 30
0.0
 11
3.95633
 21
109.75
 31
0.0
  0
LINE
  8
0
 62
     0
 10
3.95633
 20
109.75
 30
0.0
 11
3.74138
 21
109.963
 31
0.0
  0
LINE
  8
0
 62
     0
 10
3.74138
 20
109.963
 30
0.0
 11
3.4699
 21
110.103
 31
0.0
  0
LINE
  8
0
 62
     0
 10
3.4699
 20
110.103
 30
0.0
 11
3.16811
 21
110.149
 31
0.0
  0
LINE
  8
0
 62
     0
 10
3.16811
 20
110.149
 30
0.0
 11
2.86632
 21
110.103
 31
0.0
  0
LINE
  8
0
 62
     0
 10
87.8872
 20
110.103
 30
0.0
 11
87.6141
 21
109.963
 31
0.0
  0
LINE
  8
0
 62
     0
 10
87.6141
 20
109.963
 30
0.0
 11
87.3993
 21
109.75
 31
0.0
  0
LINE
  8
0
 62
     0
 10
87.3993
 20
109.75
 30
0.0
 11
87.2603
 21
109.477
 31
0.0
  0
LINE
  8
0
 62
     0
 10
87.2603
 20
109.477
 30
0.0
 11
87.2134
 21
109.177
 31
0.0
  0
LINE
  8
0
 62
     0
 10
87.2134
 20
109.177
 30
0.0
 11
87.2603
 21
108.873
 31
0.0
  0
LINE
  8
0
 62
     0
 10
87.2603
 20
108.873
 30
0.0
 11
87.3993
 21
108.603
 31
0.0
  0
LINE
  8
0
 62
     0
 10
87.3993
 20
108.603
 30
0.0
 11
87.6141
 21
108.387
 31
0.0
  0
LINE
  8
0
 62
     0
 10
87.6141
 20
108.387
 30
0.0
 11
87.8872
 21
108.248
 31
0.0
  0
LINE
  8
0
 62
     0
 10
87.8872
 20
108.248
 30
0.0
 11
88.1888
 21
108.201
 31
0.0
  0
LINE
  8
0
 62
     0
 10
88.1888
 20
108.201
 30
0.0
 11
88.4894
 21
108.248
 31
0.0
  0
LINE
  8
0
 62
     0
 10
88.4894
 20
108.248
 30
0.0
 11
88.7621
 21
108.387
 31
0.0
  0
LINE
  8
0
 62
     0
 10
88.7621
 20
108.387
 30
0.0
 11
88.9773
 21
108.603
 31
0.0
  0
LINE
  8
0
 62
     0
 10
88.9773
 20
108.603
 30
0.0
 11
89.1163
 21
108.873
 31
0.0
  0
LINE
  8
0
 62
     0
 10
89.1163
 20
108.873
 30
0.0
 11
89.1632
 21
109.177
 31
0.0
  0
LINE
  8
0
 62
     0
 10
89.1632
 20
109.177
 30
0.0
 11
89.1163
 21
109.477
 31
0.0
  0
LINE
  8
0
 62
     0
 10
89.1163
 20
109.477
 30
0.0
 11
88.9773
 21
109.75
 31
0.0
  0
LINE
  8
0
 62
     0
 10
88.9773
 20
109.75
 30
0.0
 11
88.7621
 21
109.963
 31
0.0
  0
LINE
  8
0
 62
     0
 10
88.7621
 20
109.963
 30
0.0
 11
88.4894
 21
110.103
 31
0.0
  0
LINE
  8
0
 62
     0
 10
88.4894
 20
110.103
 30
0.0
 11
88.1888
 21
110.149
 31
0.0
  0
LINE
  8
0
 62
     0
 10
88.1888
 20
110.149
 30
0.0
 11
87.8872
 21
110.103
 31
0.0
  0
LINE
  8
0
 62
     0
 10
172.907
 20
110.103
 30
0.0
 11
172.635
 21
109.963
 31
0.0
  0
LINE
  8
0
 62
     0
 10
172.635
 20
109.963
 30
0.0
 11
172.42
 21
109.75
 31
0.0
  0
LINE
  8
0
 62
     0
 10
172.42
 20
109.75
 30
0.0
 11
172.281
 21
109.477
 31
0.0
  0
LINE
  8
0
 62
     0
 10
172.281
 20
109.477
 30
0.0
 11
172.234
 21
109.177
 31
0.0
  0
LINE
  8
0
 62
     0
 10
172.234
 20
109.177
 30
0.0
 11
172.281
 21
108.873
 31
0.0
  0
LINE
  8
0
 62
     0
 10
172.281
 20
108.873
 30
0.0
 11
172.42
 21
108.603
 31
0.0
  0
LINE
  8
0
 62
     0
 10
172.42
 20
108.603
 30
0.0
 11
172.635
 21
108.387
 31
0.0
  0
LINE
  8
0
 62
     0
 10
172.635
 20
108.387
 30
0.0
 11
172.907
 21
108.248
 31
0.0
  0
LINE
  8
0
 62
     0
 10
172.907
 20
108.248
 30
0.0
 11
173.208
 21
108.201
 31
0.0
  0
LINE
  8
0
 62
     0
 10
173.208
 20
108.201
 30
0.0
 11
173.51
 21
108.248
 31
0.0
  0
LINE
  8
0
 62
     0
 10
173.51
 20
108.248
 30
0.0
 11
173.782
 21
108.387
 31
0.0
  0
LINE
  8
0
 62
     0
 10
173.782
 20
108.387
 30
0.0
 11
173.997
 21
108.603
 31
0.0
  0
LINE
  8
0
 62
     0
 10
173.997
 20
108.603
 30
0.0
 11
174.136
 21
108.873
 31
0.0
  0
LINE
  8
0
 62
     0
 10
174.136
 20
108.873
 30
0.0
 11
174.184
 21
109.177
 31
0.0
  0
LINE
  8
0
 62
     0
 10
174.184
 20
109.177
 30
0.0
 11
174.136
 21
109.477
 31
0.0
  0
LINE
  8
0
 62
     0
 10
174.136
 20
109.477
 30
0.0
 11
173.997
 21
109.75
 31
0.0
  0
LINE
  8
0
 62
     0
 10
173.997
 20
109.75
 30
0.0
 11
173.782
 21
109.963
 31
0.0
  0
LINE
  8
0
 62
     0
 10
173.782
 20
109.963
 30
0.0
 11
173.51
 21
110.103
 31
0.0
  0
LINE
  8
0
 62
     0
 10
173.51
 20
110.103
 30
0.0
 11
173.208
 21
110.149
 31
0.0
  0
LINE
  8
0
 62
     0
 10
173.208
 20
110.149
 30
0.0
 11
172.907
 21
110.103
 31
0.0
  0
LINE
  8
0
 62
     0
 10
257.927
 20
110.103
 30
0.0
 11
257.654
 21
109.963
 31
0.0
  0
LINE
  8
0
 62
     0
 10
257.654
 20
109.963
 30
0.0
 11
257.44
 21
109.75
 31
0.0
  0
LINE
  8
0
 62
     0
 10
257.44
 20
109.75
 30
0.0
 11
257.3
 21
109.477
 31
0.0
  0
LINE
  8
0
 62
     0
 10
257.3
 20
109.477
 30
0.0
 11
257.252
 21
109.177
 31
0.0
  0
LINE
  8
0
 62
     0
 10
257.252
 20
109.177
 30
0.0
 11
257.3
 21
108.873
 31
0.0
  0
LINE
  8
0
 62
     0
 10
257.3
 20
108.873
 30
0.0
 11
257.44
 21
108.603
 31
0.0
  0
LINE
  8
0
 62
     0
 10
257.44
 20
108.603
 30
0.0
 11
257.654
 21
108.387
 31
0.0
  0
LINE
  8
0
 62
     0
 10
257.654
 20
108.387
 30
0.0
 11
257.927
 21
108.248
 31
0.0
  0
LINE
  8
0
 62
     0
 10
257.927
 20
108.248
 30
0.0
 11
258.229
 21
108.201
 31
0.0
  0
LINE
  8
0
 62
     0
 10
258.229
 20
108.201
 30
0.0
 11
258.53
 21
108.248
 31
0.0
  0
LINE
  8
0
 62
     0
 10
258.53
 20
108.248
 30
0.0
 11
258.801
 21
108.387
 31
0.0
  0
LINE
  8
0
 62
     0
 10
258.801
 20
108.387
 30
0.0
 11
259.018
 21
108.603
 31
0.0
  0
LINE
  8
0
 62
     0
 10
259.018
 20
108.603
 30
0.0
 11
259.155
 21
108.873
 31
0.0
  0
LINE
  8
0
 62
     0
 10
259.155
 20
108.873
 30
0.0
 11
259.203
 21
109.177
 31
0.0
  0
LINE
  8
0
 62
     0
 10
259.203
 20
109.177
 30
0.0
 11
259.155
 21
109.477
 31
0.0
  0
LINE
  8
0
 62
     0
 10
259.155
 20
109.477
 30
0.0
 11
259.018
 21
109.75
 31
0.0
  0
LINE
  8
0
 62
     0
 10
259.018
 20
109.75
 30
0.0
 11
258.801
 21
109.963
 31
0.0
  0
LINE
  8
0
 62
     0
 10
258.801
 20
109.963
 30
0.0
 11
258.53
 21
110.103
 31
0.0
  0
LINE
  8
0
 62
     0
 10
258.53
 20
110.103
 30
0.0
 11
258.229
 21
110.149
 31
0.0
  0
LINE
  8
0
 62
     0
 10
258.229
 20
110.149
 30
0.0
 11
257.927
 21
110.103
 31
0.0
  0
LINE
  8
0
 62
     0
 10
342.947
 20
110.103
 30
0.0
 11
342.675
 21
109.963
 31
0.0
  0
LINE
  8
0
 62
     0
 10
342.675
 20
109.963
 30
0.0
 11
342.46
 21
109.75
 31
0.0
  0
LINE
  8
0
 62
     0
 10
342.46
 20
109.75
 30
0.0
 11
342.321
 21
109.477
 31
0.0
  0
LINE
  8
0
 62
     0
 10
342.321
 20
109.477
 30
0.0
 11
342.273
 21
109.177
 31
0.0
  0
LINE
  8
0
 62
     0
 10
342.273
 20
109.177
 30
0.0
 11
342.321
 21
108.873
 31
0.0
  0
LINE
  8
0
 62
     0
 10
342.321
 20
108.873
 30
0.0
 11
342.46
 21
108.603
 31
0.0
  0
LINE
  8
0
 62
     0
 10
342.46
 20
108.603
 30
0.0
 11
342.675
 21
108.387
 31
0.0
  0
LINE
  8
0
 62
     0
 10
342.675
 20
108.387
 30
0.0
 11
342.947
 21
108.248
 31
0.0
  0
LINE
  8
0
 62
     0
 10
342.947
 20
108.248
 30
0.0
 11
343.249
 21
108.201
 31
0.0
  0
LINE
  8
0
 62
     0
 10
343.249
 20
108.201
 30
0.0
 11
343.551
 21
108.248
 31
0.0
  0
LINE
  8
0
 62
     0
 10
343.551
 20
108.248
 30
0.0
 11
343.822
 21
108.387
 31
0.0
  0
LINE
  8
0
 62
     0
 10
343.822
 20
108.387
 30
0.0
 11
344.037
 21
108.603
 31
0.0
  0
LINE
  8
0
 62
     0
 10
344.037
 20
108.603
 30
0.0
 11
344.176
 21
108.873
 31
0.0
  0
LINE
  8
0
 62
     0
 10
344.176
 20
108.873
 30
0.0
 11
344.224
 21
109.177
 31
0.0
  0
LINE
  8
0
 62
     0
 10
344.224
 20
109.177
 30
0.0
 11
344.176
 21
109.477
 31
0.0
  0
LINE
  8
0
 62
     0
 10
344.176
 20
109.477
 30
0.0
 11
344.037
 21
109.75
 31
0.0
  0
LINE
  8
0
 62
     0
 10
344.037
 20
109.75
 30
0.0
 11
343.822
 21
109.963
 31
0.0
  0
LINE
  8
0
 62
     0
 10
343.822
 20
109.963
 30
0.0
 11
343.551
 21
110.103
 31
0.0
  0
LINE
  8
0
 62
     0
 10
343.551
 20
110.103
 30
0.0
 11
343.249
 21
110.149
 31
0.0
  0
LINE
  8
0
 62
     0
 10
343.249
 20
110.149
 30
0.0
 11
342.947
 21
110.103
 31
0.0
  0
LINE
  8
0
 62
     0
 10
427.965
 20
110.103
 30
0.0
 11
427.694
 21
109.963
 31
0.0
  0
LINE
  8
0
 62
     0
 10
427.694
 20
109.963
 30
0.0
 11
427.478
 21
109.75
 31
0.0
  0
LINE
  8
0
 62
     0
 10
427.478
 20
109.75
 30
0.0
 11
427.341
 21
109.477
 31
0.0
  0
LINE
  8
0
 62
     0
 10
427.341
 20
109.477
 30
0.0
 11
427.291
 21
109.177
 31
0.0
  0
LINE
  8
0
 62
     0
 10
427.291
 20
109.177
 30
0.0
 11
427.341
 21
108.873
 31
0.0
  0
LINE
  8
0
 62
     0
 10
427.341
 20
108.873
 30
0.0
 11
427.478
 21
108.603
 31
0.0
  0
LINE
  8
0
 62
     0
 10
427.478
 20
108.603
 30
0.0
 11
427.694
 21
108.387
 31
0.0
  0
LINE
  8
0
 62
     0
 10
427.694
 20
108.387
 30
0.0
 11
427.965
 21
108.248
 31
0.0
  0
LINE
  8
0
 62
     0
 10
427.965
 20
108.248
 30
0.0
 11
428.269
 21
108.201
 31
0.0
  0
LINE
  8
0
 62
     0
 10
428.269
 20
108.201
 30
0.0
 11
428.569
 21
108.248
 31
0.0
  0
LINE
  8
0
 62
     0
 10
428.569
 20
108.248
 30
0.0
 11
428.84
 21
108.387
 31
0.0
  0
LINE
  8
0
 62
     0
 10
428.84
 20
108.387
 30
0.0
 11
429.055
 21
108.603
 31
0.0
  0
LINE
  8
0
 62
     0
 10
429.055
 20
108.603
 30
0.0
 11
429.196
 21
108.873
 31
0.0
  0
LINE
  8
0
 62
     0
 10
429.196
 20
108.873
 30
0.0
 11
429.242
 21
109.177
 31
0.0
  0
LINE
  8
0
 62
     0
 10
429.242
 20
109.177
 30
0.0
 11
429.196
 21
109.477
 31
0.0
  0
LINE
  8
0
 62
     0
 10
429.196
 20
109.477
 30
0.0
 11
429.055
 21
109.75
 31
0.0
  0
LINE
  8
0
 62
     0
 10
429.055
 20
109.75
 30
0.0
 11
428.84
 21
109.963
 31
0.0
  0
LINE
  8
0
 62
     0
 10
428.84
 20
109.963
 30
0.0
 11
428.569
 21
110.103
 31
0.0
  0
LINE
  8
0
 62
     0
 10
428.569
 20
110.103
 30
0.0
 11
428.269
 21
110.149
 31
0.0
  0
LINE
  8
0
 62
     0
 10
428.269
 20
110.149
 30
0.0
 11
427.965
 21
110.103
 31
0.0
  0
ENDSEC
  0
EOF
