<?xml version="1.0" encoding="UTF-8" standalone="no"?>
<!-- Generated by SVGo -->

<svg
   xmlns:dc="http://purl.org/dc/elements/1.1/"
   xmlns:cc="http://creativecommons.org/ns#"
   xmlns:rdf="http://www.w3.org/1999/02/22-rdf-syntax-ns#"
   xmlns:svg="http://www.w3.org/2000/svg"
   xmlns="http://www.w3.org/2000/svg"
   xmlns:sodipodi="http://sodipodi.sourceforge.net/DTD/sodipodi-0.dtd"
   xmlns:inkscape="http://www.inkscape.org/namespaces/inkscape"
   width="461.67682mm"
   height="157.30479mm"
   viewBox="0 0 461.67682 157.30479"
   id="svg2"
   version="1.1"
   inkscape:version="0.91 r13725"
   sodipodi:docname="single.svg"
   style="shape-rendering:crispEdges">
  <metadata
     id="metadata166">
    <rdf:RDF>
      <cc:Work
         rdf:about="">
        <dc:format>image/svg+xml</dc:format>
        <dc:type
           rdf:resource="http://purl.org/dc/dcmitype/StillImage" />
        <dc:title></dc:title>
      </cc:Work>
    </rdf:RDF>
  </metadata>
  <defs
     id="defs164" />
  <sodipodi:namedview
     pagecolor="#ffffff"
     bordercolor="#666666"
     borderopacity="1"
     objecttolerance="10"
     gridtolerance="10"
     guidetolerance="10"
     inkscape:pageopacity="0"
     inkscape:pageshadow="2"
     inkscape:window-width="1920"
     inkscape:window-height="1020"
     id="namedview162"
     showgrid="false"
     fit-margin-top="5"
     fit-margin-left="5"
     fit-margin-right="5"
     fit-margin-bottom="5"
     showguides="false"
     inkscape:zoom="0.78"
     inkscape:cx="793.35337"
     inkscape:cy="362.52842"
     inkscape:window-x="0"
     inkscape:window-y="31"
     inkscape:window-maximized="1"
     inkscape:current-layer="svg2" />
  <polygon
     points="436.243,6.843 436.25,7 436.25,115.162 436.243,115.319 436.225,115.475 436.194,115.629 436.152,115.78 436.097,115.927 436.032,116.07 435.955,116.207 435.868,116.338 435.77,116.461 435.664,116.576 435.548,116.683 435.425,116.78 435.294,116.867 435.157,116.944 435.015,117.01 434.868,117.064 434.716,117.107 434.562,117.137 434.406,117.156 434.249,117.162 7,117.162 6.843,117.156 6.687,117.137 6.533,117.107 6.381,117.064 6.234,117.01 6.092,116.944 5.955,116.867 5.824,116.78 5.701,116.683 5.585,116.576 5.479,116.461 5.381,116.338 5.294,116.207 5.217,116.07 5.152,115.927 5.097,115.78 5.055,115.629 5.024,115.475 5.006,115.319 4.999,115.162 5,7 5.006,6.843 5.024,6.687 5.055,6.533 5.097,6.381 5.152,6.234 5.217,6.092 5.294,5.955 5.381,5.824 5.479,5.701 5.585,5.585 5.701,5.479 5.824,5.381 5.955,5.294 6.092,5.217 6.234,5.152 6.381,5.097 6.533,5.055 6.687,5.024 6.843,5.006 7,4.999 434.25,5 434.406,5.006 434.562,5.024 434.716,5.055 434.868,5.097 435.015,5.152 435.157,5.217 435.294,5.294 435.425,5.381 435.548,5.479 435.664,5.585 435.77,5.701 435.868,5.824 435.955,5.955 436.032,6.092 436.097,6.234 436.152,6.381 436.194,6.533 436.225,6.687 "
     style="fill:none;stroke:#000000;stroke-width:0.2"
     id="polygon4"
     transform="matrix(1.0468786,0,0,1.3109725,-0.12865821,-1.4224625)" />
  <polygon
     points="432.601,114.876 432.873,115.014 433.174,115.062 433.476,115.014 433.748,114.876 433.963,114.66 434.102,114.388 434.15,114.087 434.102,113.786 433.963,113.514 433.748,113.298 433.476,113.16 433.174,113.112 432.873,113.16 432.601,113.298 432.386,113.514 432.247,113.786 432.199,114.087 432.247,114.388 432.386,114.66 "
     style="fill:none;stroke:#000000;stroke-width:0.2"
     id="polygon6"
     transform="translate(9.6394086,31.279041)" />
  <polygon
     points="347.581,114.876 347.853,115.014 348.155,115.062 348.456,115.014 348.728,114.876 348.943,114.66 349.082,114.388 349.13,114.087 349.082,113.786 348.943,113.514 348.728,113.298 348.456,113.16 348.155,113.112 347.853,113.16 347.581,113.298 347.366,113.514 347.227,113.786 347.179,114.087 347.227,114.388 347.366,114.66 "
     style="fill:none;stroke:#000000;stroke-width:0.2"
     id="polygon8"
     transform="translate(9.6394086,31.279041)" />
  <polygon
     points="262.561,114.876 262.833,115.014 263.135,115.062 263.436,115.014 263.708,114.876 263.923,114.66 264.062,114.388 264.11,114.087 264.062,113.786 263.923,113.514 263.708,113.298 263.436,113.16 263.135,113.112 262.833,113.16 262.561,113.298 262.346,113.514 262.207,113.786 262.159,114.087 262.207,114.388 262.346,114.66 "
     style="fill:none;stroke:#000000;stroke-width:0.2"
     id="polygon10"
     transform="translate(9.6394086,31.279041)" />
  <polygon
     points="177.541,114.876 177.813,115.014 178.114,115.062 178.416,115.014 178.688,114.876 178.903,114.66 179.042,114.388 179.089,114.087 179.042,113.786 178.903,113.514 178.688,113.298 178.416,113.16 178.114,113.112 177.813,113.16 177.541,113.298 177.326,113.514 177.187,113.786 177.14,114.087 177.187,114.388 177.326,114.66 "
     style="fill:none;stroke:#000000;stroke-width:0.2"
     id="polygon12"
     transform="translate(9.6394086,31.279041)" />
  <polygon
     points="92.521,114.876 92.793,115.014 93.094,115.062 93.396,115.014 93.668,114.876 93.883,114.66 94.022,114.388 94.069,114.087 94.022,113.786 93.883,113.514 93.668,113.298 93.396,113.16 93.094,113.112 92.793,113.16 92.521,113.298 92.306,113.514 92.167,113.786 92.119,114.087 92.167,114.388 92.306,114.66 "
     style="fill:none;stroke:#000000;stroke-width:0.2"
     id="polygon14"
     transform="translate(9.6394086,31.279041)" />
  <polygon
     points="7.501,114.876 7.773,115.014 8.074,115.062 8.376,115.014 8.648,114.876 8.863,114.66 9.002,114.388 9.049,114.087 9.002,113.786 8.863,113.514 8.648,113.298 8.376,113.16 8.074,113.112 7.773,113.16 7.501,113.298 7.286,113.514 7.147,113.786 7.099,114.087 7.147,114.388 7.286,114.66 "
     style="fill:none;stroke:#000000;stroke-width:0.2"
     id="polygon16"
     transform="translate(9.6394086,31.279041)" />
  <polygon
     points="13.675,108.487 27.525,108.487 27.525,94.637 13.675,94.637 "
     style="fill:none;stroke:#000000;stroke-width:0.2"
     id="polygon18"
     transform="matrix(0.91354546,0.40673664,-0.40673664,0.91354546,42.608858,-10.729659)" />
  <polygon
     points="32.725,108.487 46.575,108.487 46.575,94.637 32.725,94.637 "
     style="fill:none;stroke:#000000;stroke-width:0.2"
     id="polygon20"
     transform="matrix(0.91354546,0.40673664,-0.40673664,0.91354546,42.608858,-10.729659)" />
  <polygon
     points="127.975,108.487 141.825,108.487 141.825,94.637 127.975,94.637 "
     style="fill:none;stroke:#000000;stroke-width:0.2"
     id="polygon22"
     transform="matrix(0.91354546,0.40673664,-0.40673664,0.91354546,42.608858,-10.729659)" />
  <polygon
     points="313.275,94.637 299.425,94.637 299.425,108.487 313.275,108.487 "
     style="fill:none;stroke:#000000;stroke-width:0.2"
     id="polygon24"
     transform="matrix(0.91354546,-0.40673664,0.40673664,0.91354546,15.965907,168.80182)" />
  <polygon
     points="408.525,94.637 394.675,94.637 394.675,108.487 408.525,108.487 "
     style="fill:none;stroke:#000000;stroke-width:0.2"
     id="polygon26"
     transform="matrix(0.91354546,-0.40673664,0.40673664,0.91354546,15.965907,168.80182)" />
  <polygon
     points="427.575,94.637 413.725,94.637 413.725,108.487 427.575,108.487 "
     style="fill:none;stroke:#000000;stroke-width:0.2"
     id="polygon28"
     transform="matrix(0.91354546,-0.40673664,0.40673664,0.91354546,15.965907,168.80182)" />
  <polygon
     points="51.775,103.725 65.625,103.725 65.625,89.875 51.775,89.875 "
     style="fill:none;stroke:#000000;stroke-width:0.2"
     id="polygon30"
     transform="matrix(0.91354546,0.40673664,-0.40673664,0.91354546,42.608858,-10.729659)" />
  <polygon
     points="70.825,103.725 84.675,103.725 84.675,89.875 70.825,89.875 "
     style="fill:none;stroke:#000000;stroke-width:0.2"
     id="polygon32"
     transform="matrix(0.91354546,0.40673664,-0.40673664,0.91354546,42.608858,-10.729659)" />
  <polygon
     points="89.875,103.725 103.725,103.725 103.725,89.875 89.875,89.875 "
     style="fill:none;stroke:#000000;stroke-width:0.2"
     id="polygon34"
     transform="matrix(0.91354546,0.40673664,-0.40673664,0.91354546,42.608858,-10.729659)" />
  <polygon
     points="108.925,103.725 122.774,103.725 122.774,89.875 108.925,89.875 "
     style="fill:none;stroke:#000000;stroke-width:0.2"
     id="polygon36"
     transform="matrix(0.91354546,0.40673664,-0.40673664,0.91354546,42.608858,-10.729659)" />
  <polygon
     points="332.325,89.875 318.474,89.875 318.474,103.725 332.325,103.725 "
     style="fill:none;stroke:#000000;stroke-width:0.2"
     id="polygon38"
     transform="matrix(0.91354546,-0.40673664,0.40673664,0.91354546,15.965907,168.80182)" />
  <polygon
     points="351.375,89.875 337.525,89.875 337.525,103.725 351.375,103.725 "
     style="fill:none;stroke:#000000;stroke-width:0.2"
     id="polygon40"
     transform="matrix(0.91354546,-0.40673664,0.40673664,0.91354546,15.965907,168.80182)" />
  <polygon
     points="370.425,89.875 356.575,89.875 356.575,103.725 370.425,103.725 "
     style="fill:none;stroke:#000000;stroke-width:0.2"
     id="polygon42"
     transform="matrix(0.91354546,-0.40673664,0.40673664,0.91354546,15.965907,168.80182)" />
  <polygon
     points="389.475,89.875 375.625,89.875 375.625,103.725 389.475,103.725 "
     style="fill:none;stroke:#000000;stroke-width:0.2"
     id="polygon44"
     transform="matrix(0.91354546,-0.40673664,0.40673664,0.91354546,15.965907,168.80182)" />
  <polygon
     points="13.675,89.437 27.525,89.437 27.525,75.587 13.675,75.587 "
     style="fill:none;stroke:#000000;stroke-width:0.2"
     id="polygon46"
     transform="matrix(0.91354546,0.40673664,-0.40673664,0.91354546,42.608858,-10.729659)" />
  <polygon
     points="32.725,89.437 46.575,89.437 46.575,75.587 32.725,75.587 "
     style="fill:none;stroke:#000000;stroke-width:0.2"
     id="polygon48"
     transform="matrix(0.91354546,0.40673664,-0.40673664,0.91354546,42.608858,-10.729659)" />
  <polygon
     points="408.525,75.587 394.675,75.587 394.675,89.437 408.525,89.437 "
     style="fill:none;stroke:#000000;stroke-width:0.2"
     id="polygon50"
     transform="matrix(0.91354546,-0.40673664,0.40673664,0.91354546,15.965907,168.80182)" />
  <polygon
     points="427.575,75.587 413.725,75.587 413.725,89.437 427.575,89.437 "
     style="fill:none;stroke:#000000;stroke-width:0.2"
     id="polygon52"
     transform="matrix(0.91354546,-0.40673664,0.40673664,0.91354546,15.965907,168.80182)" />
  <polygon
     points="51.775,84.675 65.625,84.675 65.625,70.825 51.775,70.825 "
     style="fill:none;stroke:#000000;stroke-width:0.2"
     id="polygon54"
     transform="matrix(0.91354546,0.40673664,-0.40673664,0.91354546,42.608858,-10.729659)" />
  <polygon
     points="70.825,84.675 84.675,84.675 84.675,70.825 70.825,70.825 "
     style="fill:none;stroke:#000000;stroke-width:0.2"
     id="polygon56"
     transform="matrix(0.91354546,0.40673664,-0.40673664,0.91354546,42.608858,-10.729659)" />
  <polygon
     points="89.875,84.675 103.725,84.675 103.725,70.825 89.875,70.825 "
     style="fill:none;stroke:#000000;stroke-width:0.2"
     id="polygon58"
     transform="matrix(0.91354546,0.40673664,-0.40673664,0.91354546,42.608858,-10.729659)" />
  <polygon
     points="108.925,84.675 122.774,84.675 122.774,70.825 108.925,70.825 "
     style="fill:none;stroke:#000000;stroke-width:0.2"
     id="polygon60"
     transform="matrix(0.91354546,0.40673664,-0.40673664,0.91354546,42.608858,-10.729659)" />
  <polygon
     points="127.975,84.675 141.825,84.675 141.825,70.825 127.975,70.825 "
     style="fill:none;stroke:#000000;stroke-width:0.2"
     id="polygon62"
     transform="matrix(0.91354546,0.40673664,-0.40673664,0.91354546,42.608858,-10.729659)" />
  <polygon
     points="313.275,70.825 299.425,70.825 299.425,84.675 313.275,84.675 "
     style="fill:none;stroke:#000000;stroke-width:0.2"
     id="polygon64"
     transform="matrix(0.91354546,-0.40673664,0.40673664,0.91354546,15.965907,168.80182)" />
  <polygon
     points="332.325,70.825 318.475,70.825 318.475,84.675 332.325,84.675 "
     style="fill:none;stroke:#000000;stroke-width:0.2"
     id="polygon66"
     transform="matrix(0.91354546,-0.40673664,0.40673664,0.91354546,15.965907,168.80182)" />
  <polygon
     points="351.375,70.825 337.525,70.825 337.525,84.675 351.375,84.675 "
     style="fill:none;stroke:#000000;stroke-width:0.2"
     id="polygon68"
     transform="matrix(0.91354546,-0.40673664,0.40673664,0.91354546,15.965907,168.80182)" />
  <polygon
     points="370.425,70.825 356.575,70.825 356.575,84.675 370.425,84.675 "
     style="fill:none;stroke:#000000;stroke-width:0.2"
     id="polygon70"
     transform="matrix(0.91354546,-0.40673664,0.40673664,0.91354546,15.965907,168.80182)" />
  <polygon
     points="389.475,70.825 375.625,70.825 375.625,84.675 389.475,84.675 "
     style="fill:none;stroke:#000000;stroke-width:0.2"
     id="polygon72"
     transform="matrix(0.91354546,-0.40673664,0.40673664,0.91354546,15.965907,168.80182)" />
  <polygon
     points="13.675,70.387 27.525,70.387 27.525,56.537 13.675,56.537 "
     style="fill:none;stroke:#000000;stroke-width:0.2"
     id="polygon74"
     transform="matrix(0.91354546,0.40673664,-0.40673664,0.91354546,42.608858,-10.729659)" />
  <polygon
     points="32.725,70.387 46.575,70.387 46.575,56.537 32.725,56.537 "
     style="fill:none;stroke:#000000;stroke-width:0.2"
     id="polygon76"
     transform="matrix(0.91354546,0.40673664,-0.40673664,0.91354546,42.608858,-10.729659)" />
  <polygon
     points="408.525,56.537 394.675,56.537 394.675,70.387 408.525,70.387 "
     style="fill:none;stroke:#000000;stroke-width:0.2"
     id="polygon78"
     transform="matrix(0.91354546,-0.40673664,0.40673664,0.91354546,15.965907,168.80182)" />
  <polygon
     points="427.575,56.537 413.725,56.537 413.725,70.387 427.575,70.387 "
     style="fill:none;stroke:#000000;stroke-width:0.2"
     id="polygon80"
     transform="matrix(0.91354546,-0.40673664,0.40673664,0.91354546,15.965907,168.80182)" />
  <polygon
     points="51.775,65.625 65.625,65.625 65.625,51.775 51.775,51.775 "
     style="fill:none;stroke:#000000;stroke-width:0.2"
     id="polygon82"
     transform="matrix(0.91354546,0.40673664,-0.40673664,0.91354546,42.608858,-10.729659)" />
  <polygon
     points="70.825,65.625 84.675,65.625 84.675,51.775 70.825,51.775 "
     style="fill:none;stroke:#000000;stroke-width:0.2"
     id="polygon84"
     transform="matrix(0.91354546,0.40673664,-0.40673664,0.91354546,42.608858,-10.729659)" />
  <polygon
     points="89.875,65.625 103.725,65.625 103.725,51.775 89.875,51.775 "
     style="fill:none;stroke:#000000;stroke-width:0.2"
     id="polygon86"
     transform="matrix(0.91354546,0.40673664,-0.40673664,0.91354546,42.608858,-10.729659)" />
  <polygon
     points="108.925,65.625 122.774,65.625 122.774,51.775 108.925,51.775 "
     style="fill:none;stroke:#000000;stroke-width:0.2"
     id="polygon88"
     transform="matrix(0.91354546,0.40673664,-0.40673664,0.91354546,42.608858,-10.729659)" />
  <polygon
     points="127.975,65.625 141.825,65.625 141.825,51.775 127.975,51.775 "
     style="fill:none;stroke:#000000;stroke-width:0.2"
     id="polygon90"
     transform="matrix(0.91354546,0.40673664,-0.40673664,0.91354546,42.608858,-10.729659)" />
  <polygon
     points="313.275,51.775 299.425,51.775 299.425,65.625 313.275,65.625 "
     style="fill:none;stroke:#000000;stroke-width:0.2"
     id="polygon92"
     transform="matrix(0.91354546,-0.40673664,0.40673664,0.91354546,15.965907,168.80182)" />
  <polygon
     points="332.325,51.775 318.475,51.775 318.475,65.625 332.325,65.625 "
     style="fill:none;stroke:#000000;stroke-width:0.2"
     id="polygon94"
     transform="matrix(0.91354546,-0.40673664,0.40673664,0.91354546,15.965907,168.80182)" />
  <polygon
     points="351.375,51.775 337.525,51.775 337.525,65.625 351.375,65.625 "
     style="fill:none;stroke:#000000;stroke-width:0.2"
     id="polygon96"
     transform="matrix(0.91354546,-0.40673664,0.40673664,0.91354546,15.965907,168.80182)" />
  <polygon
     points="370.425,51.775 356.575,51.775 356.575,65.625 370.425,65.625 "
     style="fill:none;stroke:#000000;stroke-width:0.2"
     id="polygon98"
     transform="matrix(0.91354546,-0.40673664,0.40673664,0.91354546,15.965907,168.80182)" />
  <polygon
     points="389.475,51.775 375.625,51.775 375.625,65.625 389.475,65.625 "
     style="fill:none;stroke:#000000;stroke-width:0.2"
     id="polygon100"
     transform="matrix(0.91354546,-0.40673664,0.40673664,0.91354546,15.965907,168.80182)" />
  <polygon
     points="13.675,51.337 27.525,51.337 27.525,37.487 13.675,37.487 "
     style="fill:none;stroke:#000000;stroke-width:0.2"
     id="polygon102"
     transform="matrix(0.91354546,0.40673664,-0.40673664,0.91354546,42.608858,-10.729659)" />
  <polygon
     points="32.725,51.337 46.575,51.337 46.575,37.487 32.725,37.487 "
     style="fill:none;stroke:#000000;stroke-width:0.2"
     id="polygon104"
     transform="matrix(0.91354546,0.40673664,-0.40673664,0.91354546,42.608858,-10.729659)" />
  <polygon
     points="408.525,37.487 394.675,37.487 394.675,51.337 408.525,51.337 "
     style="fill:none;stroke:#000000;stroke-width:0.2"
     id="polygon106"
     transform="matrix(0.91354546,-0.40673664,0.40673664,0.91354546,15.965907,168.80182)" />
  <polygon
     points="427.575,37.487 413.725,37.487 413.725,51.337 427.575,51.337 "
     style="fill:none;stroke:#000000;stroke-width:0.2"
     id="polygon108"
     transform="matrix(0.91354546,-0.40673664,0.40673664,0.91354546,15.965907,168.80182)" />
  <polygon
     points="51.775,46.575 65.625,46.575 65.625,32.725 51.775,32.725 "
     style="fill:none;stroke:#000000;stroke-width:0.2"
     id="polygon110"
     transform="matrix(0.91354546,0.40673664,-0.40673664,0.91354546,42.608858,-10.729659)" />
  <polygon
     points="70.825,46.575 84.675,46.575 84.675,32.725 70.825,32.725 "
     style="fill:none;stroke:#000000;stroke-width:0.2"
     id="polygon112"
     transform="matrix(0.91354546,0.40673664,-0.40673664,0.91354546,42.608858,-10.729659)" />
  <polygon
     points="89.875,46.575 103.725,46.575 103.725,32.725 89.875,32.725 "
     style="fill:none;stroke:#000000;stroke-width:0.2"
     id="polygon114"
     transform="matrix(0.91354546,0.40673664,-0.40673664,0.91354546,42.608858,-10.729659)" />
  <polygon
     points="108.925,46.575 122.774,46.575 122.774,32.725 108.925,32.725 "
     style="fill:none;stroke:#000000;stroke-width:0.2"
     id="polygon116"
     transform="matrix(0.91354546,0.40673664,-0.40673664,0.91354546,42.608858,-10.729659)" />
  <polygon
     points="332.325,32.725 318.474,32.725 318.474,46.575 332.325,46.575 "
     style="fill:none;stroke:#000000;stroke-width:0.2"
     id="polygon118"
     transform="matrix(0.91354546,-0.40673664,0.40673664,0.91354546,15.965907,168.80182)" />
  <polygon
     points="351.375,32.725 337.525,32.725 337.525,46.575 351.375,46.575 "
     style="fill:none;stroke:#000000;stroke-width:0.2"
     id="polygon120"
     transform="matrix(0.91354546,-0.40673664,0.40673664,0.91354546,15.965907,168.80182)" />
  <polygon
     points="370.425,32.725 356.575,32.725 356.575,46.575 370.425,46.575 "
     style="fill:none;stroke:#000000;stroke-width:0.2"
     id="polygon122"
     transform="matrix(0.91354546,-0.40673664,0.40673664,0.91354546,15.965907,168.80182)" />
  <polygon
     points="389.475,32.725 375.625,32.725 375.625,46.575 389.475,46.575 "
     style="fill:none;stroke:#000000;stroke-width:0.2"
     id="polygon124"
     transform="matrix(0.91354546,-0.40673664,0.40673664,0.91354546,15.965907,168.80182)" />
  <polygon
     points="13.675,32.287 27.525,32.287 27.525,18.437 13.675,18.437 "
     style="fill:none;stroke:#000000;stroke-width:0.2"
     id="polygon126"
     transform="matrix(0.91354546,0.40673664,-0.40673664,0.91354546,42.608858,-10.729659)" />
  <polygon
     points="32.725,32.287 46.575,32.287 46.575,18.437 32.725,18.437 "
     style="fill:none;stroke:#000000;stroke-width:0.2"
     id="polygon128"
     transform="matrix(0.91354546,0.40673664,-0.40673664,0.91354546,42.608858,-10.729659)" />
  <polygon
     points="408.525,18.437 394.675,18.437 394.675,32.287 408.525,32.287 "
     style="fill:none;stroke:#000000;stroke-width:0.2"
     id="polygon130"
     transform="matrix(0.91354546,-0.40673664,0.40673664,0.91354546,15.965907,168.80182)" />
  <polygon
     points="427.575,18.437 413.725,18.437 413.725,32.287 427.575,32.287 "
     style="fill:none;stroke:#000000;stroke-width:0.2"
     id="polygon132"
     transform="matrix(0.91354546,-0.40673664,0.40673664,0.91354546,15.965907,168.80182)" />
  <polygon
     points="51.775,27.525 65.625,27.525 65.625,13.675 51.775,13.675 "
     style="fill:none;stroke:#000000;stroke-width:0.2"
     id="polygon134"
     transform="matrix(0.91354546,0.40673664,-0.40673664,0.91354546,42.608858,-10.729659)" />
  <polygon
     points="70.825,27.525 84.675,27.525 84.675,13.675 70.825,13.675 "
     style="fill:none;stroke:#000000;stroke-width:0.2"
     id="polygon136"
     transform="matrix(0.91354546,0.40673664,-0.40673664,0.91354546,42.608858,-10.729659)" />
  <polygon
     points="89.875,27.525 103.725,27.525 103.725,13.675 89.875,13.675 "
     style="fill:none;stroke:#000000;stroke-width:0.2"
     id="polygon138"
     transform="matrix(0.91354546,0.40673664,-0.40673664,0.91354546,42.608858,-10.729659)" />
  <polygon
     points="108.925,27.525 122.774,27.525 122.774,13.675 108.925,13.675 "
     style="fill:none;stroke:#000000;stroke-width:0.2"
     id="polygon140"
     transform="matrix(0.91354546,0.40673664,-0.40673664,0.91354546,42.608858,-10.729659)" />
  <polygon
     points="332.325,13.675 318.474,13.675 318.474,27.525 332.325,27.525 "
     style="fill:none;stroke:#000000;stroke-width:0.2"
     id="polygon142"
     transform="matrix(0.91354546,-0.40673664,0.40673664,0.91354546,15.965907,168.80182)" />
  <polygon
     points="351.375,13.675 337.525,13.675 337.525,27.525 351.375,27.525 "
     style="fill:none;stroke:#000000;stroke-width:0.2"
     id="polygon144"
     transform="matrix(0.91354546,-0.40673664,0.40673664,0.91354546,15.965907,168.80182)" />
  <polygon
     points="370.425,13.675 356.575,13.675 356.575,27.525 370.425,27.525 "
     style="fill:none;stroke:#000000;stroke-width:0.2"
     id="polygon146"
     transform="matrix(0.91354546,-0.40673664,0.40673664,0.91354546,15.965907,168.80182)" />
  <polygon
     points="389.475,13.675 375.625,13.675 375.625,27.525 389.475,27.525 "
     style="fill:none;stroke:#000000;stroke-width:0.2"
     id="polygon148"
     transform="matrix(0.91354546,-0.40673664,0.40673664,0.91354546,15.965907,168.80182)" />
  <polygon
     points="7.501,8.863 7.773,9.002 8.074,9.05 8.376,9.002 8.648,8.863 8.863,8.648 9.002,8.376 9.049,8.074 9.002,7.773 8.863,7.501 8.648,7.286 8.376,7.147 8.074,7.1 7.773,7.147 7.501,7.286 7.286,7.501 7.147,7.773 7.099,8.074 7.147,8.376 7.286,8.648 "
     style="fill:none;stroke:#000000;stroke-width:0.2"
     id="polygon150"
     transform="translate(9.7453846,3.3703342)" />
  <polygon
     points="92.521,8.863 92.793,9.002 93.095,9.049 93.396,9.002 93.668,8.863 93.883,8.648 94.022,8.376 94.07,8.074 94.022,7.773 93.883,7.501 93.668,7.286 93.396,7.147 93.095,7.1 92.793,7.147 92.521,7.286 92.306,7.501 92.167,7.773 92.12,8.074 92.167,8.376 92.306,8.648 "
     style="fill:none;stroke:#000000;stroke-width:0.2"
     id="polygon152"
     transform="translate(9.7453846,3.3703342)" />
  <polygon
     points="177.541,8.863 177.813,9.002 178.115,9.049 178.416,9.002 178.688,8.863 178.903,8.648 179.042,8.376 179.09,8.074 179.042,7.773 178.903,7.501 178.688,7.286 178.416,7.147 178.115,7.1 177.813,7.147 177.541,7.286 177.326,7.501 177.187,7.773 177.14,8.074 177.187,8.376 177.326,8.648 "
     style="fill:none;stroke:#000000;stroke-width:0.2"
     id="polygon154"
     transform="translate(9.7453846,3.3703342)" />
  <polygon
     points="262.561,8.863 262.833,9.002 263.135,9.049 263.436,9.002 263.708,8.863 263.923,8.648 264.062,8.376 264.11,8.074 264.062,7.773 263.923,7.501 263.708,7.286 263.436,7.147 263.135,7.1 262.833,7.147 262.561,7.286 262.346,7.501 262.207,7.773 262.159,8.074 262.207,8.376 262.346,8.648 "
     style="fill:none;stroke:#000000;stroke-width:0.2"
     id="polygon156"
     transform="translate(9.7453846,3.3703342)" />
  <polygon
     points="347.581,8.863 347.853,9.002 348.155,9.049 348.456,9.002 348.728,8.863 348.943,8.648 349.082,8.376 349.13,8.074 349.082,7.773 348.943,7.501 348.728,7.286 348.456,7.147 348.155,7.1 347.853,7.147 347.581,7.286 347.366,7.501 347.227,7.773 347.179,8.074 347.227,8.376 347.366,8.648 "
     style="fill:none;stroke:#000000;stroke-width:0.2"
     id="polygon158"
     transform="translate(9.7453846,3.3703342)" />
  <polygon
     points="432.601,8.863 432.873,9.002 433.174,9.049 433.476,9.002 433.748,8.863 433.963,8.648 434.102,8.376 434.15,8.074 434.102,7.773 433.963,7.501 433.748,7.286 433.476,7.147 433.174,7.1 432.873,7.147 432.601,7.286 432.386,7.501 432.247,7.773 432.199,8.074 432.247,8.376 432.386,8.648 "
     style="fill:none;stroke:#000000;stroke-width:0.2"
     id="polygon160"
     transform="translate(9.7453846,3.3703342)" />
  <polygon
     points="179.042,114.388 179.089,114.087 179.042,113.786 178.903,113.514 178.688,113.298 178.416,113.16 178.114,113.112 177.813,113.16 177.541,113.298 177.326,113.514 177.187,113.786 177.14,114.087 177.187,114.388 177.326,114.66 177.541,114.876 177.813,115.014 178.114,115.062 178.416,115.014 178.688,114.876 178.903,114.66 "
     style="fill:none;stroke:#000000;stroke-width:0.2;shape-rendering:crispEdges"
     id="polygon12-3"
     transform="translate(-28.319638,-33.488764)" />
  <polygon
     points="179.042,114.388 179.089,114.087 179.042,113.786 178.903,113.514 178.688,113.298 178.416,113.16 178.114,113.112 177.813,113.16 177.541,113.298 177.326,113.514 177.187,113.786 177.14,114.087 177.187,114.388 177.326,114.66 177.541,114.876 177.813,115.014 178.114,115.062 178.416,115.014 178.688,114.876 178.903,114.66 "
     style="fill:none;stroke:#000000;stroke-width:0.2;shape-rendering:crispEdges"
     id="polygon12-6"
     transform="translate(133.4154,-33.488763)" />
</svg>
